<?xml version="1.0" encoding="UTF-8"?><svg id="Layer_1" xmlns="http://www.w3.org/2000/svg" viewBox="0 0 260 88"><defs><style>.cls-1{fill:#fcb912;}.cls-2{fill:#585858;}</style></defs><path class="cls-1" d="m106.28,78.14h-28.57V10.27h28.57v67.87Zm-20.15-8.42h11.73V18.69h-11.73v51.02Z"/><path class="cls-2" d="m70.32,10.07v29.3c-.28,0-.54,0-.79,0-10.13,0-20.26,0-30.39,0-1.37,0-2.71.09-4,.6-1.88.75-2.87,2.16-2.88,4.12-.02,2.07.92,3.52,2.79,4.31,1.49.63,3.06.65,4.64.68.25,0,.51-.03.76-.03,6.23,0,12.46,0,18.68,0,3.53,0,7.05-.02,10.58-.07.57,0,.68.18.68.7-.03,3.33-.04,6.66-.03,9.99,0,5.93.02,11.86.02,17.8,0,.25,0,.51,0,.85-.23,0-.42,0-.61,0-11.17,0-22.35.1-33.52-.03-15.55-.19-29.76-11.38-32.62-26.84-2.58-13.97,1.69-25.76,13.01-34.65,4.41-3.47,9.55-5.41,15.1-6.26,2.64-.41,5.3-.44,7.95-.45,10.05-.01,20.1,0,30.15,0,.14,0,.27,0,.48,0Zm-9.01,48.79c-.3,0-.55,0-.8,0-7.49,0-14.98,0-22.47-.03-1.35,0-2.73-.07-4.04-.36-8.18-1.83-12.84-8.97-11.32-17.23,1.21-6.53,7.28-11.62,13.9-11.66,3.31-.02,6.62-.02,9.93-.04,4.61-.02,9.22-.04,13.84-.06.79,0,.84-.06.84-.82,0-2.68,0-5.36,0-8.04v-.7c-.25-.01-.4-.03-.56-.03-7.82,0-15.65-.01-23.47.01-2.51,0-4.97.4-7.37,1.16-12.25,3.89-19.35,16.42-16.35,28.88,2.58,10.71,12.41,18.49,23.51,18.54,7.94.03,15.89,0,23.83,0,.17,0,.34-.02.54-.03v-9.59Z"/><path class="cls-2" d="m189.89,77.93c0-9.79,0-19.51,0-29.3.28,0,.54,0,.79,0,10.13,0,20.26,0,30.39,0,1.37,0,2.71-.09,4-.6,1.88-.75,2.87-2.16,2.88-4.12.02-2.07-.92-3.52-2.79-4.31-1.49-.63-3.06-.65-4.64-.68-.25,0-.51.03-.76.03-6.23,0-12.46,0-18.68,0-3.53,0-7.05.02-10.58.07-.57,0-.68-.18-.68-.7.03-3.33.04-6.66.03-9.99,0-5.93-.02-11.86-.02-17.8,0-.25,0-.51,0-.85.23,0,.42,0,.61,0,11.17,0,22.35-.1,33.52.03,15.55.19,29.76,11.38,32.62,26.84,2.58,13.97-1.69,25.76-13.01,34.65-4.41,3.47-9.55,5.41-15.1,6.26-2.64.41-5.3.44-7.95.45-10.05.01-20.1,0-30.15,0-.14,0-.27,0-.48,0Zm9.01-48.79c.3,0,.55,0,.8,0,7.49,0,14.98,0,22.47.03,1.35,0,2.73.07,4.04.36,8.18,1.83,12.84,8.97,11.32,17.23-1.21,6.53-7.28,11.62-13.9,11.66-3.31.02-6.62.02-9.93.04-4.61.02-9.22.04-13.84.06-.79,0-.84.06-.84.82,0,2.68,0,5.36,0,8.04v.7c.12,0,.32.02.56.03,1.19.05,2.08.02,2.38.01,1.2-.03,1.07.02,4.75.01,1.44,0,1.15,0,3.33-.02,1.78,0,3.3-.02,5.25,0,1.32,0,1.16.01,3.2.02,2.31.01,3.31,0,4.56-.03.96-.03,1.45-.04,2.01-.09,1.82-.16,3.61-.52,5.37-1.08,12.25-3.89,19.35-16.42,16.35-28.88-2.58-10.71-12.41-18.49-23.51-18.54-7.94-.03-15.89,0-23.83,0-.17,0-.34.02-.54.03v9.59Z"/><path class="cls-2" d="m181.89,77.86c-9.79,0-19.51,0-29.3,0,0-.29,0-.54,0-.79,0-10.19,0-20.38,0-30.56,0-1.37-.09-2.73-.6-4.02-.75-1.89-2.16-2.88-4.12-2.9-2.07-.02-3.52.93-4.31,2.8-.63,1.49-.65,3.08-.68,4.66,0,.26.03.51.03.77,0,6.26,0,12.53,0,18.79,0,3.55.02,7.09.07,10.64,0,.57-.18.69-.7.68-3.33-.03-6.66-.04-9.99-.03-5.93,0-11.86.02-17.8.02-.25,0-.51,0-.85,0,0-.23,0-.42,0-.61,0-11.24-.1-22.48.03-33.71.19-15.64,11.38-29.93,26.84-32.8,13.97-2.59,25.76,1.7,34.65,13.08,3.47,4.44,5.41,9.6,6.26,15.18.41,2.66.44,5.33.45,8,.01,10.11,0,20.22,0,30.33,0,.14,0,.28,0,.48Zm-48.79-9.06c0-.3,0-.55,0-.81,0-7.53,0-15.06.03-22.6,0-1.36.07-2.75.36-4.06,1.83-8.23,8.97-12.92,17.23-11.38,6.53,1.21,11.62,7.32,11.66,13.98.02,3.33.02,6.66.04,9.99.02,4.64.04,9.28.06,13.91,0,.8.06.85.82.85,2.68,0,5.36,0,8.04,0,.23,0,.46,0,.7,0,.01-.25.03-.4.03-.56,0-7.87.01-15.74-.01-23.61,0-2.52-.4-5-1.16-7.42-3.89-12.32-16.42-19.46-28.88-16.45-10.71,2.59-18.49,12.49-18.54,23.65-.03,7.99,0,15.98,0,23.96,0,.17.02.34.03.54,3.19,0,6.33,0,9.59,0Z"/></svg>