<svg xmlns="http://www.w3.org/2000/svg" viewBox="0 0 268 78">
  <g>
    <path d="M68.1623,0H0v34.0454c-.031,14.8173,8.1559,25.5652,15.0404,31.9331,7.5667,7.0204,15.9087,11.0896,18.6997,11.6798l.3411.0622.3411-.0622c2.7909-.6212,11.1329-4.6594,18.6996-11.6798,6.8844-6.399,15.0714-17.1158,15.0403-31.9331V0Z" fill="#fff"/>
    <path d="M1.735,1.8012s.093,19.7874,0,19.6942h64.7511V1.8012H1.735ZM19.1012,14.2576c.093.0621.217.1553.279.2796.0621.1242.1241.2485.1241.4038s-.031.2796-.1241.4038c-.062.1243-.186.1864-.279.2796-.155.1243-.3102.2485-.3102.4349v1.2115H4.495v-1.2115c0-.1864-.155-.3106-.3101-.4349-.093-.0621-.2171-.1553-.2791-.2796-.062-.1242-.124-.2485-.124-.4038s.031-.2796.124-.4038c.062-.1243.1861-.1864.2791-.2796.1551-.1242.3101-.2485.3101-.4349v-3.945c0-.1864-.155-.3106-.3101-.4349-.093-.0621-.2171-.1553-.2791-.2796-.062-.1243-.124-.2485-.124-.4038s.031-.2796.124-.4038c.062-.1242.1861-.1864.2791-.2796.1551-.1242.3101-.2485.3101-.4349v-1.2425h.1861c.8373,0,1.5816,0,2.0778-.2485.2171-.0932.4031-.2174.5892-.3417.4342-.2796.9303-.5902,1.6746-.5902s1.1474.2174,1.6436.4349c.3411.1553.6823.2796.9303.2796h.093c.2481,0,.5582-.1243.9303-.2796.4962-.1864,1.0543-.4349,1.6435-.4349s1.2404.3106,1.6746.5902c.2171.1242.4032.2485.5892.3417.4962.2174,1.2405.2485,2.0778.2485h.186v1.2425c0,.1864.1551.3106.3102.4349.093.0621.217.1553.279.2796.0621.1243.1241.2485.1241.4038s-.031.2796-.1241.4038c-.062.1242-.186.1864-.279.2796-.155.1242-.3102.2485-.3102.4349v3.945c0,.1864.1551.3107.3102.4349ZM46.4529,16.3388c-1.1163,1.7706-3.2251,2.2055-3.3181,2.2366-.4342.0621-.8683.1242-1.2715.1242-2.2328,0-4.2795-.9629-6.3883-2.0502-.2481-.1242-.4962-.2485-.7753-.4038-1.3335-.7455-3.1941-1.7396-4.7757-1.7396s-.8993.0932-1.2715.2796h-.062v.0932c0,.2174-.062.4038-.1241.5902-.2481.6834-1.0854,1.3979-1.4575,1.6774-.9303.6524-2.0468,1.3358-3.4422,1.3358s-.4032,0-.5892-.0932c-.2481-.0932-.4652-.2485-.6203-.4349-.062-.0932-.155-.2174-.1861-.3417-.0309-.0932-.062-.1864-.093-.3106v-.0932h-.093c-.5582-.1553-.8682-.5281-.8682-.963s.2481-.6213.4651-.9009c.3722-.4349.6823-.8076.155-1.2736-.062-.031-.093-.0932-.155-.1242-.062-.0622-.155-.0932-.217-.1864-.4652-.497-.1861-1.4911,0-2.0813v-.0621c.1861-.6524.4651-1.3358.8373-2.0813.3721-.7455,1.1164-2.1123,1.9537-2.8268h.062c.0207,0,.0413.0103.062.031,0,0,.1241.1553.2481.4038l.155.2485.093-.2485c.2481-.7145.6203-1.1804,1.1475-1.3668.5582-.2174,1.1163.0932,1.3644.2796l.1241.0932.062-.1242c.1861-.2796.4962-.6213,1.0234-.6523.5892,0,1.0543.3728,1.2715.6213l.093.0932.093-.0621c.2481-.2174.9303-.7145,1.6125-.6213.6513.0932.8994.6523.9614.8698v.1553c.031,0,.1861-.0621.1861-.0621.3101-.1553.8993-.3417,1.4265,0,.3411.2174.4031.6213.3721.9008v.1553h.1551c.4031-.0621,1.1784-.1242,1.6435.3417.4651.466.3722.8387.3411,1.1804v.1553h.155c.3722-.0311.8683,0,1.1164.4038.1861.2796.124.6833.062.8697v.1243c-.031,0,.093.0311.093.0311.217.0621.5892.1863.6823.497.093.2174.062.5902-.062,1.0251v.1242c-.031,0,.062.0311.062.0311.1861.0621.5272.2485.7132.6213.1861.3417.1551.7766,0,1.3047v.0931c-.0309,0,.031.0622.031.0622.4652.4349.9614.8076,1.4265,1.1493.9614.6834,2.4499,1.0562,3.4422.2175.3722-.3107.5583-.9009.4342-1.429-.1241-.4659-.4342-.8076-.8683-.9008-.7752-.1553-1.3644.5591-1.8607,1.2736,0,0-.031.0311-.062.0311,0,0-.062,0-.062-.0311-.4652-1.0872-.4652-1.9881-.062-2.6715.3411-.5902,1.0233-.994,1.8296-1.1183h.124v-.1242c0-1.2736.2791-2.2055.8994-2.7647.3721-.3417,1.0543-.7145,2.2328-.5591,0,0,.031,0,.062.0311v.0621c-.8373,2.0502-.6512,2.8267-.186,4.5042.031.1553.093.3106.124.4659.4342,1.5843.3102,2.9511-.4031,4.0693l-.1241-.1553ZM63.9742,14.2576c.093.0621.2171.1553.2791.2796.062.1242.124.2485.124.4038s-.0309.2796-.124.4038c-.062.1243-.1861.1864-.2791.2796-.155.1243-.3101.2485-.3101.4349v1.2115h-14.2961v-1.2115c0-.1864-.155-.3106-.3101-.4349-.093-.0621-.2171-.1553-.2791-.2796-.062-.1242-.1241-.2485-.1241-.4038s.031-.2796.1241-.4038c.062-.1243.1861-.1864.2791-.2796.155-.1242.3101-.2485.3101-.4349v-3.945c0-.1864-.155-.3106-.3101-.4349-.093-.0621-.2171-.1553-.2791-.2796-.062-.1243-.1241-.2485-.1241-.4038s.031-.2796.1241-.4038c.062-.1242.1861-.1864.2791-.2796.155-.1242.3101-.2485.3101-.4349v-1.2425h.1861c.8373,0,1.5815,0,2.0777-.2485.217-.0932.4031-.2174.5892-.3417.4342-.2796.9303-.5902,1.6746-.5902s1.1474.2174,1.6435.4349c.3411.1553.6823.2796.9303.2796h.093c.2481,0,.5583-.1243.9303-.2796.4962-.1864,1.0544-.4349,1.6436-.4349s1.2404.3106,1.6746.5902c.217.1242.4031.2485.5892.3417.4962.2174,1.2404.2485,2.0777.2485h.1861v1.2425c0,.1864.155.3106.3101.4349.093.0621.2171.1553.2791.2796.062.1243.124.2485.124.4038s-.0309.2796-.124.4038c-.062.1242-.1861.1864-.2791.2796-.155.1242-.3101.2485-.3101.4349v3.945c0,.1864.155.3107.3101.4349Z" fill="#8b1a11"/>
    <path d="M24.034,13.4197c.217,0,.4341.0621.6512.2485l.1861.1864c.155.1553.155.3727,0,.497-.1551.1242-.3411.2485-.4652.3417-.2481.1864-.7132.497-1.0234.2485-.155-.1243.155-.3417,0-.9009-.124-.4348.3102-.6212.6513-.6212Z" fill="#091e57"/>
    <path d="M41.8344,18.7927c-2.2328,0-4.3106-.963-6.4503-2.0813-.2481-.1243-.4962-.2796-.7753-.4349-1.7056-.9319-4.2486-2.3298-5.9232-1.46,0,.2175-.062.4349-.124.6213-.2481.7144-1.1164,1.4289-1.5195,1.7396-.9303.6834-2.0777,1.3668-3.5353,1.3668s-.4342-.0311-.6203-.0932c-.279-.0932-.5271-.2485-.6823-.497-.093-.1243-.155-.2175-.217-.3728-.062-.1243-.062-.2175-.093-.3417-.5892-.1864-.9614-.5902-.9614-1.0872s.2482-.6835.4963-.963c.4031-.466.5892-.7145.186-1.1183-.0309-.0311-.0929-.0622-.155-.1243-.062-.0621-.155-.1242-.217-.1864-.4962-.528-.2171-1.5842-.062-2.2055v-.0621c.186-.6524.4651-1.3358.8373-2.1123.4962-1.0251,1.1163-2.1434,1.9847-2.8889.031-.0311.093-.0621.155-.0311.062,0,.1241.0311.155.0932.031.0311.3722.5902.7443,1.2736,1.5194-.9008,3.6593-1.0251,3.9073-1.0251,1.3335-.0621,3.2561.1553,4.8998,1.4289,1.0234.7766,1.8607,1.7706,2.6669,2.7025.2171.2485.4342.4971.6512.7456,1.2405,1.4289,2.4499,2.5161,3.6283,3.3858.8993.6524,2.3259,1.0251,3.2872.2485.3411-.2795.4962-.8076.3722-1.3046-.093-.4349-.3722-.7145-.7753-.8077-.6823-.1553-1.2404.5281-1.7366,1.2425-.031.0622-.1241.0932-.1861.0932-.0621,0-.155-.0621-.155-.1242-.4652-1.1183-.4963-2.0502-.0621-2.7958.3722-.6212,1.0854-1.0561,1.9227-1.1804,0-1.3357.3102-2.2987.9614-2.8578.4031-.3728,1.1164-.7455,2.3258-.5902.0621,0,.1241.0311.1551.0932.0309.0621.0309.1242,0,.1864-.8373,2.0191-.6203,2.7647-.1861,4.411.031.1553.093.3106.124.4659.4342,1.6464.3102,3.0443-.4031,4.1625-1.1474,1.8327-3.3181,2.2676-3.4112,2.2676-.4342.0622-.8683.1243-1.3025.1243l.093.0932ZM29.9261,14.1332c1.6125,0,3.4422.994,4.8997,1.8017.2791.1553.5272.3106.7753.4038,2.4499,1.2737,4.8687,2.3609,7.4736,1.926,0,0,2.1088-.4349,3.1321-2.0813.6512-1.0251.7442-2.3298.3411-3.8207-.031-.1554-.093-.3107-.1241-.466-.4341-1.5842-.6822-2.454.093-4.442-.8993-.0621-1.4265.2485-1.7366.5281-.5892.5281-.8683,1.46-.8062,2.7336,0,.1242-.0621.1864-.1861.2174-.8063.0932-1.4576.466-1.7987,1.0251-.3101.5281-.3411,1.2115-.062,2.0503.4031-.5281,1.0543-1.2737,1.9227-1.0873.5272.1243.9303.5281,1.0854,1.1183.155.6523-.062,1.3358-.5272,1.7085-1.1163.9319-2.76.5281-3.7833-.2174-1.2094-.9009-2.4188-2.0192-3.7213-3.448-.2171-.2485-.4342-.497-.6513-.7455-.8062-.932-1.6435-1.8949-2.6359-2.6715-1.5506-1.2115-3.3802-1.3978-4.6517-1.3357-.8683.0311-2.5739.2796-3.7523.994.3411.7455.6822,1.5842.6822,2.2366s0,.2174-.062.3417c.8373-.4971,1.8296-.1553,2.4188.4659.1241.1243.2482.3417.4032.5592.217.3417.4651.7144.7753.994.0309.0311.062.0932.062.1553,0,.0622-.031.1243-.093.1554,0,0-.5272.3727-1.3025.9319-.093.0621-.217.1553-.3101.2174,0,0-.031,0-.062.0311l.6512.1242c.4651-.2485.9614-.3727,1.4885-.3727h.0621v-.0311ZM24.1271,7.0197c-.7133.6834-1.2715,1.6774-1.7056,2.5783-.3722.7145-.6203,1.3668-.7753,2.0191v.0622c-.155.4659-.4031,1.46-.062,1.8017.0309.0621.093.0932.155.1553.062.031.124.0932.1861.1553.7132.6834.217,1.2426-.155,1.6774-.2171.2486-.4032.4971-.4032.7145,0,.497.5892.6834.7753.7145.093,0,.155.0932.155.1864,0,.1553,0,.2485.0621.3727.0309.0932.0929.1864.155.2796.124.1553.3101.2796.4962.3417.155.0621.3101.0621.4962.0621,1.3335,0,2.4188-.6523,3.2872-1.2736.5272-.3727,1.1784-1.0562,1.3645-1.5532.062-.1242.0929-.2795.0929-.4349l-.9302-.1553c-.093,0-.1551-.0932-.1861-.1864,0-.1864.124-.3106.4651-.528.093-.0622.1861-.1243.2791-.2175.4962-.3728.8683-.6523,1.1164-.8077-.2481-.2795-.4652-.6212-.6513-.9008-.155-.2175-.2481-.4038-.3721-.497-.4652-.4971-1.2715-.8077-1.9227-.3728-.2791.1553-.4962.3728-.7443.5902-.1861.1864-.4032.3728-.6203.5281-.093.0621-.2171.0311-.2791-.0311-.062-.0931-.062-.2174,0-.2795l.093-.0932c.3101-.2796.9923-.9319.9923-1.3979,0-1.0872-1.0234-2.8578-1.3955-3.4791h.031v-.0311Z" fill="#091e57"/>
    <path d="M22.7302,17.3659c-.1861,0-.4031,0-.5892-.0311-.1241,0-.1861-.1242-.1861-.2174s.1241-.1864.2171-.1864c.9303.1242,2.2947,0,3.5042-1.2426.093-.0932.217-.0932.2791,0,.093.0932.093.2175,0,.2796-.8994.9319-2.0157,1.3979-3.2562,1.3979h.031Z" fill="#091e57"/>
    <path d="M39.2302,14.2901h-.0621c-.0929-.0311-.155-.1554-.093-.2486.2171-.497.2482-.9008.093-1.2114-.217-.4349-.7132-.5281-.7132-.5592-.062,0-.093-.0621-.1241-.0932,0-.0621-.0309-.0932,0-.1553.0621-.1864.2481-.7455.1241-1.0562-.093-.2485-.5582-.3417-.6823-.3727-.062,0-.1241-.0311-.155-.0932-.031-.0622-.031-.1243,0-.1864.062-.1553.1861-.5902.031-.8387-.3102-.466-1.1164-.2485-1.1164-.2485-.062,0-.155,0-.1861-.0621-.062-.0621-.062-.1242-.031-.1864,0,0,.2171-.7145-.217-1.1804-.5272-.5281-1.6436-.2174-1.6746-.2174-.062,0-.155,0-.1861-.0621-.062-.0621-.062-.1242-.031-.1864,0,0,.1861-.6213-.217-.8698-.6512-.4038-1.3645.1242-1.3645.1242-.062.0311-.124.0621-.1861,0-.062,0-.0929-.0932-.124-.1553,0-.0311-.1241-.8076-.8063-.9008-.7443-.0932-1.5194.6834-1.5505.6834-.031.0311-.093.0621-.155.0621-.0621,0-.093-.0311-.155-.0621,0,0-.5272-.6834-1.1784-.6523-.6513,0-.8994.6834-.8994.6834,0,.0621-.062.0932-.124.1242-.0621,0-.1241,0-.1861-.0621,0,0-.6512-.6213-1.2715-.3728-.8062.3106-1.0543,1.3046-1.1164,1.6153,0,.1243-.124.1864-.217.1553-.093,0-.155-.1242-.155-.2174.093-.4038.3411-1.5532,1.3645-1.9259.6202-.2174,1.2094.0932,1.4885.3106.155-.2796.4962-.6834,1.1164-.7145.6512,0,1.1474.4038,1.3644.6523.3102-.2485.9924-.7455,1.7056-.6523.6203.0932.9303.5902,1.0544.963.341-.1553.9613-.3728,1.5815,0,.4031.2485.4651.7145.4342,1.0251.4341-.0621,1.2404-.1243,1.7366.3728.4962.497.4031.9319.3722,1.2736.3411-.0311.9303,0,1.2404.466.1861.3106.124.7145.062.9941.2481.0621.6512.2174.7753.5591.124.3417,0,.8387-.062,1.1183.217.0932.5582.2796.7752.6834.2171.4349.1861.9319-.062,1.5532-.031.0621-.093.1243-.1861.1243h-.0309Z" fill="#091e57"/>
    <path d="M38.2671,16.9297c-.093,0-.1861-.1243-.155-.2175.093-.7455-.3411-.8698-.7133-.994-.093-.0311-.1861-.0621-.2481-.0932-.217-.1243-.217-.3728-.217-.6213s0-.5902-.2171-.8076c-.3721-.4039-1.0543-.1554-1.0854-.1243-.062,0-.124,0-.1861-.0311-.062-.031-.093-.1242-.062-.1863,0,0,.1241-.7766-.3411-1.1805-.3722-.3106-1.0854-.2485-1.3335-.1864-.062,0-.1241.0001-.155-.031-.031-.0311-.0621-.0932-.0621-.1553.031-.497-.155-.9009-.5271-1.1494-.3102-.2174-.6823-.2174-.9923-.0621-.8063.4349-1.1164.4659-1.9848-.1243-.2481-.1864-.5272-.2485-.7753-.1864-.3101.0932-.6202.3728-.8373.8077-.0309.0932-.155.1243-.2481.0932-.093-.0311-.124-.1553-.093-.2485.2791-.5592.6513-.9009,1.0855-1.0251.3721-.0932.7442,0,1.0854.2485.7132.497.8682.497,1.5505.1242.4031-.2174.9614-.1863,1.3645.0932.4342.2796.6823.7145.7132,1.2426.3411-.0311.9924-.0621,1.4265.3106.4032.3417.4963.9009.4963,1.2426.3101-.0621.8682-.0932,1.2094.3106.3102.3417.3102.7455.3102,1.0562s0,.2485.031.3106c.031,0,.093.0311.1861.0622.3722.1242,1.1164.3417.9923,1.3978,0,.0932-.093.1553-.1861.1553l-.0309-.031Z" fill="#091e57"/>
    <path d="M19.1658,14.1645c-.155-.1243-.2481-.1864-.2481-.3417v-3.9451c0-.1242.093-.2174.2481-.3417.093-.0932.2171-.1864.3101-.3106.093-.1243.1551-.3106.1241-.466,0-.1553-.031-.3417-.1241-.4659-.0929-.1243-.186-.2174-.3101-.3106-.155-.1243-.2481-.1864-.2481-.3417v-1.3668h-.3101c-.7443,0-1.5195,0-2.0157-.2174-.1861-.0932-.3722-.2174-.5892-.3417-.4652-.2796-.9614-.6213-1.7367-.6213s-1.1784.2174-1.6746.4349c-.3411.1242-.6512.2485-.8682.2485h-.093c-.2171,0-.5272-.1243-.8683-.2485-.4962-.1864-1.0544-.4349-1.6746-.4349s-1.3025.3106-1.7366.6213c-.1861.1243-.3721.2485-.5892.3417-.4962.2174-1.3025.2174-2.0157.2174h-.3101v1.3668c0,.1243-.093.2174-.2481.3417-.093.0932-.2171.1864-.3101.3106-.093.1242-.1551.3106-.124.4659,0,.1553.031.3417.124.466.093.1242.1861.2174.3101.3106.155.1242.2481.1864.2481.3417v3.9451c0,.1242-.093.2174-.2481.3417-.093.0932-.2171.1864-.3101.3106-.093.1243-.1551.3106-.124.466,0,.1553.031.3417.124.4659.093.1243.1861.2175.3101.3107.155.1242.2481.1863.2481.3417v1.3357h14.5752v-1.3357c0-.1243.093-.2175.2481-.3417.093-.0932.217-.1864.3101-.3107.093-.1242.155-.3106.1241-.4659,0-.1554-.031-.3417-.1241-.466-.093-.1242-.186-.2174-.3101-.3106h-.093ZM12.7465,5.9948c.4652-.1864.9924-.4038,1.5195-.4038s1.0544.2485,1.4886.5281c.217.1242.4031.2485.6512.3728.1861.0932.4031.1242.6203.1864v8.4182c-.3411-.0621-.7133-.0621-1.1164-.0621-.5892,0-1.2404,0-1.8296-.1864-.2171-.0622-.4032-.1243-.6203-.1864-.6203-.1864-1.1784-.3728-1.5506-.4038v-7.9523c.2482-.0311.5272-.1553.8373-.2796v-.0311ZM6.8854,6.4918c.2171-.0932.4342-.2174.6512-.3728.4342-.2796.8683-.5281,1.4885-.5281s1.0544.2174,1.5196.4038c.3101.1243.6202.2485.8682.2796v7.9522h-.0309c-.3722.0311-.9303.2174-1.5506.4038-.1861.0622-.4031.1243-.6202.1864-.5892.1864-1.2094.1864-1.8296.1864s-.7753,0-1.1164.0621V6.6471c.2171-.0311.4031-.0932.5892-.1864h.031v.0311ZM19.2278,14.9411c0,.0932,0,.1553-.062.2485l-.217.2174c-.1861.1553-.4031.3107-.4031.6524v.8698H4.8077v-.8698c0-.3417-.2171-.4971-.4031-.6524-.093-.0621-.155-.1242-.2171-.2174-.062-.0622-.062-.1553-.062-.2485s0-.1864.062-.2485l.2171-.2175c.1861-.1553.4031-.3106.4031-.6523v-3.9451c0-.3417-.2171-.497-.4031-.6523-.093-.0621-.155-.1242-.2171-.2174-.062-.0621-.062-.1553-.062-.2485s0-.1864.062-.2485l.2171-.2174c.1861-.1553.4031-.3106.4031-.6523v-.9319c.3721,0,.7133,0,1.0234-.0311v9.1016h4.9927c.093.3728.4342.6213.8063.6213s.7132-.2796.8062-.6213h4.9928V6.6782c.3411,0,.6823.0311,1.0234.0311v.9319c0,.3417.217.497.4031.6523.093.0621.155.1242.217.2174.062.0621.0621.1553.0621.2485s0,.1864-.0621.2485l-.217.2174c-.1861.1553-.4031.3106-.4031.6523v3.9451c0,.3417.217.497.4031.6523.093.0621.155.1243.217.2175.062.0931.0621.1553.0621.2485h.0929Z" fill="#091e57"/>
    <path d="M64.0684,14.1645c-.155-.1243-.2481-.1864-.2481-.3417v-3.9451c0-.1242.093-.2174.2481-.3417.093-.0932.2171-.1864.3102-.3106.093-.1243.155-.3106.124-.466,0-.1553-.0309-.3417-.124-.4659-.093-.1243-.1861-.2174-.3102-.3106-.155-.1243-.2481-.1864-.2481-.3417v-1.3668h-.3101c-.7443,0-1.5196,0-2.0157-.2174-.1861-.0932-.3721-.2174-.5892-.3417-.4651-.2796-.9613-.6213-1.7366-.6213s-1.1784.2174-1.6746.4349c-.3411.1242-.6513.2485-.8683.2485h-.093c-.217,0-.5272-.1243-.8683-.2485-.4962-.1864-1.0543-.4349-1.6746-.4349s-1.3024.3106-1.7366.6213c-.1861.1243-.3722.2485-.5892.3417-.4962.2174-1.3025.2174-2.0157.2174h-.3101v1.3668c0,.1243-.093.2174-.2481.3417-.093.0932-.2171.1864-.3102.3106-.093.1242-.155.3106-.124.4659,0,.1553.0309.3417.124.466.093.1242.1861.2174.3102.3106.155.1242.2481.1864.2481.3417v3.9451c0,.1242-.093.2174-.2481.3417-.093.0932-.2171.1864-.3102.3106-.093.1243-.155.3106-.124.466,0,.1553.0309.3417.124.4659.093.1243.1861.2175.3102.3107.155.1242.2481.1863.2481.3417v1.3357h14.5751v-1.3357c0-.1243.093-.2175.2481-.3417.093-.0932.2171-.1864.3102-.3107.093-.1242.155-.3106.124-.4659,0-.1554-.0309-.3417-.124-.466-.093-.1242-.1861-.2174-.3102-.3106h-.093ZM57.6182,5.9948c.4652-.1864.9923-.4038,1.5195-.4038s1.0544.2485,1.4885.5281c.2171.1242.4032.2485.6513.3728.186.0932.4031.1242.6202.1864v8.4182c-.3411-.0621-.7132-.0621-1.1163-.0621-.5892,0-1.2405,0-1.8297-.1864-.217-.0622-.4031-.1243-.6202-.1864-.6203-.1864-1.1784-.3728-1.5506-.4038v-7.9523c.2481-.0311.5272-.1553.8373-.2796v-.0311ZM51.788,6.4918c.2171-.0932.4342-.2174.6513-.3728.4342-.2796.8682-.5281,1.4885-.5281s1.0544.2174,1.5196.4038c.3101.1243.6203.2485.8683.2796v7.9522h-.031c-.3722.0311-.9303.2174-1.5506.4038-.186.0622-.4031.1243-.6202.1864-.5892.1864-1.2095.1864-1.8296.1864s-.7753,0-1.1164.0621V6.6471c.217-.0311.4031-.0932.5892-.1864h.0309v.0311ZM64.0995,14.9411c0,.0932,0,.1553-.062.2485l-.2171.2174c-.186.1553-.4031.3107-.4031.6524v.8698h-13.7378v-.8698c0-.3417-.2171-.4971-.4032-.6524-.0929-.0621-.155-.1242-.217-.2174-.062-.0622-.062-.1553-.062-.2485s0-.1864.062-.2485l.217-.2175c.1861-.1553.4032-.3106.4032-.6523v-3.9451c0-.3417-.2171-.497-.4032-.6523-.0929-.0621-.155-.1242-.217-.2174-.062-.0621-.062-.1553-.062-.2485s0-.1864.062-.2485l.217-.2174c.1861-.1553.4032-.3106.4032-.6523v-.9319c.3721,0,.7132,0,1.0233-.0311v9.1016h4.9928c.093.3728.4342.6213.8062.6213s.7133-.2796.8063-.6213h4.9928V6.6782c.341,0,.6822.0311,1.0233.0311v.9319c0,.3417.2171.497.4032.6523.0929.0621.155.1242.217.2174.062.0621.062.1553.062.2485s0,.1864-.062.2485l-.217.2174c-.1861.1553-.4032.3106-.4032.6523v3.9451c0,.3417.2171.497.4032.6523.0929.0621.155.1243.217.2175.062.0621.062.1553.062.2485h.093Z" fill="#091e57"/>
    <path d="M66.8903,1.304H1.3019v32.7408c-.031,14.3513,7.9388,24.7574,14.6372,31.0012,7.2876,6.7718,15.5056,10.81,18.1105,11.3691h.124c2.5739-.5591,10.7919-4.5973,18.1105-11.3691,6.6984-6.2127,14.6682-16.6499,14.6372-31.0012V1.304h-.031ZM65.9599,2.2048v18.8243H2.2012V2.2048h63.7587ZM14.8538,52.9623c-2.2018-2.2055-2.2018-5.7467,0-7.9522,2.2018-2.2055,5.7371-2.2055,7.9388,0,2.2018,2.2055,2.2018,5.7467,0,7.9522-2.2017,2.2056-5.737,2.2056-7.9388,0ZM51.6328,64.3936c-7.5976,7.0514-15.4435,10.5926-17.5522,11.1207-2.1088-.5281-9.9545-4.0693-17.5522-11.1207-.1861-.1864-.3722-.3417-.5583-.5281l18.1105-19.2592,18.1105,19.2592c-.1861.1864-.3722.3417-.5583.5281ZM28.4676,35.0388c0-3.1064,2.5119-5.6224,5.613-5.6224s5.613,2.5161,5.613,5.6224-2.5119,5.6225-5.613,5.6225-5.613-2.5162-5.613-5.6225ZM53.3075,52.9623c-2.2018,2.2056-5.7371,2.2056-7.9389,0-2.2018-2.2055-2.2018-5.7467,0-7.9522s5.7371-2.2055,7.9389,0c2.2017,2.2055,2.2017,5.7467,0,7.9522ZM62.3316,50.1045l-28.2511-27.3047L5.8295,50.1045c-2.2018-4.6284-3.6593-9.9713-3.6283-16.0598v-12.1147h63.7587v12.1147c0,6.0884-1.4265,11.4313-3.6283,16.0598Z" fill="#091e57"/>
  </g>
  <g>
    <g fill="#091e57">
      <path d="M79.9149,1.2762h5.6751c1.8607,0,3.3492.4038,4.4345,1.2425,1.0854.8387,1.6126,1.8949,1.6126,3.1995s-.4651,2.2987-1.4265,2.9821c-.9614.6834-2.2948,1.0562-4.0934,1.0562s-1.4886-.0621-2.3879-.1553v4.38c0,.9319.124,1.5842.3722,1.957.2481.3417.7132.5281,1.3955.5281v.4659h-5.613v-.4659c.6823,0,1.1474-.1864,1.3955-.5592.2481-.3728.3722-.994.3722-1.8638V4.2583c0-.9319-.1241-1.5842-.3722-1.957-.2481-.3728-.7132-.5591-1.3955-.5591v-.466h.031ZM85.683,1.8665h-1.9227v6.9892c.5271.1864,1.1784.2796,1.9227.2796,1.1784,0,2.1088-.3106,2.76-.9008.6823-.5902,1.0234-1.4289,1.0234-2.4851s-.3411-2.0502-1.0234-2.7957c-.6823-.7455-1.6126-1.0872-2.791-1.0872h.031Z"/>
      <path d="M104.1032,7.1766h.4652v3.7897h-.4652c-.1547-.6524-.3724-1.0872-.62-1.2426-.2486-.1553-.7757-.2485-1.5813-.2485h-3.8768v5.5914c0,.4038.093.6523.2481.8387.1861.1553.4651.2485.8993.2485h2.7294c.9614,0,1.6432-.0621,2.0156-.1553.3714-.0932.6819-.3106.9304-.5902.2476-.2796.5271-.7455.8366-1.3979h.4652l-.7128,2.92h-11.2263v-.4659c.7133,0,1.1784-.1864,1.3956-.5281.2481-.3728.3721-.994.3721-1.926V4.2566c0-.963-.124-1.6153-.3721-1.957-.2482-.3417-.7133-.5281-1.3956-.5281v-.466h11.2263v2.6093h-.2795c-.1547-.7455-.3724-1.2425-.6819-1.491-.3105-.2485-.9304-.3728-1.9228-.3728h-4.4967v6.6786h4.373c.589,0,.9923-.0932,1.209-.3106.2176-.2174.3724-.6213.4652-1.2115v-.0311Z"/>
      <path d="M114.0275,9.6628h-1.2719v4.2867c0,.9319.1238,1.5843.4033,1.926.2476.3727.7128.5591,1.3957.5591v.466h-5.6136v-.466c.6829,0,1.1481-.1864,1.3957-.5591.2486-.3728.3724-.9941.3724-1.926V4.1646c0-.9319-.1238-1.5532-.3724-1.9259-.2476-.3417-.7128-.5281-1.3957-.5281v-.466h6.3883c1.5823,0,2.8532.3728,3.7836,1.1493.9304.7766,1.4266,1.7395,1.4266,2.951,0,1.9259-1.0852,3.1995-3.2256,3.8208.4652.3106.9304.7145,1.3647,1.2425.4343.5281,1.0233,1.3979,1.768,2.6405.8056,1.3668,1.4576,2.2676,1.9228,2.6715.4652.4349.9304.6523,1.4266.6834v.4659h-3.1946c-.6509-.8076-1.4576-1.957-2.388-3.479-.9923-1.6153-1.767-2.6405-2.3261-3.0754-.5581-.4348-1.178-.6523-1.8599-.6523ZM114.3989,1.8659h-1.6432v7.1446h1.9228c1.1471,0,2.0466-.3417,2.6975-.994.6519-.6523.9923-1.5221.9923-2.6093s-.3714-1.9259-1.0852-2.5783c-.7128-.6523-1.6742-.994-2.8532-.994h-.0309v.0311Z"/>
      <path d="M130.4609,9.6628h-1.2709v4.2867c0,.9319.1238,1.5843.4033,1.926.2476.3727.7128.5591,1.3946.5591v.466h-5.6126v-.466c.6819,0,1.1471-.1864,1.3957-.5591.2476-.3728.3724-.9941.3724-1.926V4.1646c0-.9319-.1248-1.5532-.3724-1.9259-.2486-.3417-.7138-.5281-1.3957-.5281v-.466h6.3883c1.5813,0,2.8532.3728,3.7836,1.1493.9304.7766,1.4266,1.7395,1.4266,2.951,0,1.9259-1.0862,3.1995-3.2256,3.8208.4652.3106.9304.7145,1.3647,1.2425.4343.5281,1.0233,1.3979,1.767,2.6405.8066,1.3668,1.4576,2.2676,1.9228,2.6715.4652.4349.9304.6523,1.4266.6834v.4659h-3.1936c-.6519-.8076-1.4576-1.957-2.388-3.479-.9923-1.6153-1.768-2.6405-2.3261-3.0754-.5581-.4348-1.178-.6523-1.8609-.6523ZM130.8333,1.8659h-1.6432v7.1446h1.9228c1.1471,0,2.0466-.3417,2.6975-.994.6509-.6523.9923-1.5221.9923-2.6093s-.3724-1.9259-1.0852-2.5783c-.7138-.6523-1.6742-.994-2.8532-.994h-.031v.0311Z"/>
      <path d="M150.9905,3.4812l-3.5041,5.5293v4.9081c0,.9629.1238,1.6153.3724,1.957.2476.3417.6819.5281,1.3338.5281v.4659h-5.6755v-.4659c.7757,0,1.2719-.1864,1.5504-.5592.2486-.3728.3724-1.0251.3724-1.9259v-4.9081l-3.3184-5.1876c-.5581-.8698-.9923-1.4289-1.3338-1.6774-.3404-.2796-.8366-.4038-1.4256-.4349v-.466h6.1087v.466c-1.0852,0-1.6123.2485-1.6123.7455s.0928.497.3095.8387l3.0708,4.7216,2.4808-3.914c.3714-.5902.5581-1.0872.5581-1.491s-.3414-.8698-1.0233-.8698v-.466h4.2788v.466c-.589.0311-1.0233.1553-1.3328.3728-.3105.2174-.7138.6834-1.1481,1.3978h-.0619v-.0311Z"/>
      <path d="M100.4763,23.8278v.4349c-.589.0311-1.0545.2796-1.4577.7145-.3721.4349-.7753,1.2114-1.1784,2.2987l-4.1554,11.5866h-.4652l-4.0314-10.9653-3.9384,10.9653h-.4342l-4.5276-12.239c-.2481-.6834-.4652-1.1804-.6822-1.491-.1861-.3107-.4031-.5592-.6512-.6834-.2171-.1243-.6203-.1864-1.2095-.1864v-.4349h5.489v.4349c-.8683.0932-1.3025.4349-1.3025.963s.0621.497.1861.8387l3.4733,9.4122,3.1321-8.6356-.3411-.963c-.2171-.5902-.4652-1.0251-.7753-1.2736-.3101-.2485-.7442-.3728-1.3025-.3728v-.4349h5.427v.4349c-.9614,0-1.4265.3107-1.4265.9009s.062.5591.217.9319l3.4733,9.3812,3.0391-8.294c.2481-.6523.3721-1.2115.3721-1.6464,0-.8697-.4962-1.3046-1.4885-1.3046v-.4039h4.5587v.0311Z"/>
      <path d="M101.252,31.1886c0-2.2055.7448-4.0382,2.2642-5.4982,1.5194-1.46,3.4113-2.2055,5.6745-2.2055s4.0632.7455,5.5826,2.2365c1.5194,1.4911,2.2951,3.3238,2.2951,5.4672s-.7757,4.0692-2.2951,5.5914c-1.5195,1.5221-3.4113,2.2676-5.6136,2.2676s-4.0622-.7455-5.5816-2.2676c-1.5194-1.5222-2.2951-3.3859-2.2951-5.5914h-.031ZM103.5471,31.1886c0,2.1744.5271,3.9139,1.5504,5.2497,1.0233,1.3357,2.388,2.0191,4.0312,2.0191,1.6442,0,3.0399-.6834,4.0941-2.0502,1.0542-1.3668,1.5813-3.0753,1.5813-5.1254s-.5271-3.945-1.5504-5.2808c-1.0233-1.3357-2.357-1.9881-4.0003-1.9881-1.6442,0-3.1327.6524-4.156,1.9571-1.0542,1.3046-1.5504,3.0442-1.5504,5.2186Z"/>
      <path d="M124.2933,31.78h-1.21v4.0693c0,.8698.1238,1.4911.3724,1.8328.2476.3417.6819.528,1.3338.528v.4349h-5.334v-.4349c.6509,0,1.0852-.1863,1.3328-.528.2176-.3417.3414-.963.3414-1.8328v-9.319c0-.8698-.1238-1.4911-.3414-1.8017-.2166-.3417-.6819-.4971-1.3328-.4971v-.4349h6.0778c1.4885,0,2.6985.3728,3.597,1.0873.8995.7144,1.3338,1.6464,1.3338,2.7957,0,1.8328-1.0233,3.0443-3.0698,3.6344.4343.2795.8995.6834,1.3028,1.1804.4333.497.9923,1.3357,1.6742,2.5162.7757,1.3046,1.3957,2.1434,1.8299,2.5472s.8995.6213,1.3637.6523v.4349h-3.0389c-.62-.7455-1.3637-1.8638-2.2632-3.2926-.9304-1.5222-1.6752-2.5162-2.2023-2.92-.5271-.4349-1.1161-.6213-1.767-.6213v-.0311ZM124.6647,24.3869h-1.5504v6.7719h1.8299c1.0852,0,1.9537-.3107,2.5427-.932.62-.6212.9304-1.46.9304-2.4851s-.3414-1.8017-1.0233-2.4229c-.6819-.6213-1.5813-.932-2.7294-.932Z"/>
      <path d="M146.526,35.4145h.4343l-.8995,3.2305h-10.729v-.4349c.6199,0,1.0233-.1863,1.3018-.5591.2486-.3728.3724-1.0251.3724-1.926v-9.3501c0-.8076-.1238-1.3668-.3724-1.6774-.2476-.3107-.6819-.466-1.3328-.466v-.4349h5.3021v.4349c-.589,0-1.0233.1864-1.2709.5592-.2486.3727-.3724.963-.3724,1.8017v9.9091c0,.5592.1238.932.3414,1.1183.2166.1864.6819.3107,1.3328.3107h2.9461c.8995,0,1.5514-.1553,1.9228-.466.3724-.3106.7138-.994,1.0233-2.0502Z"/>
      <path d="M148.7283,38.6744v-.4349c.6519,0,1.0862-.1864,1.3028-.5281.2486-.3417.3724-.9629.3724-1.8327v-9.2569c0-.9009-.1238-1.4911-.3724-1.8328-.2476-.3417-.6819-.5281-1.3028-.5281v-.4349h6.8535c2.5437,0,4.5593.7145,6.0788,2.1745,1.5194,1.4289,2.2632,3.2928,2.2632,5.4982s-.7128,3.9139-2.1704,5.2186c-1.4266,1.3047-3.4422,1.957-6.0159,1.957h-7.0402.0309ZM155.1794,24.3853h-2.8223v10.9653c0,1.0562.1238,1.7706.3724,2.1745.2476.3727.7438.5902,1.5195.5902h1.5195c1.8289,0,3.2555-.5902,4.2788-1.7707,1.0552-1.1804,1.5823-2.7957,1.5823-4.8148s-.5581-3.8828-1.7061-5.1875c-1.1471-1.3047-2.7284-1.957-4.744-1.957Z"/>
      <path d="M92.1627,58.4302v-4.5352h-8.497v4.5352c0,.9319.1241,1.5843.4032,1.926.2481.3727.7442.5591,1.4265.5591v.466h-5.644v-.466c.6822,0,1.1474-.1864,1.3955-.5591.2481-.3728.3722-1.0251.3722-1.926v-9.7538c0-.963-.1241-1.6153-.3722-1.957-.2481-.3417-.7133-.5281-1.3955-.5281v-.466h5.644v.466c-.6823,0-1.1475.1864-1.4265.5591-.2481.3728-.4032,1.0251-.4032,1.926v4.442h8.497v-4.442c0-.963-.124-1.6153-.3721-1.957-.2481-.3417-.7133-.5281-1.3645-.5281v-.466h5.582v.466c-.6513,0-1.1164.1864-1.3956.5591-.2481.3728-.3721,1.0251-.3721,1.957v9.754c0,.9319.124,1.5842.3721,1.9259.2481.3728.7133.5281,1.3956.5281v.466h-5.582v-.466c.6822,0,1.1474-.1864,1.3955-.5281.2481-.3727.3411-.994.3411-1.9259v-.0311Z"/>
      <path d="M98.6443,53.4933c0-2.3298.8062-4.2556,2.3881-5.8088,1.5813-1.5532,3.597-2.3298,5.954-2.3298s4.2798.7766,5.8612,2.3608c1.6123,1.5843,2.388,3.4791,2.388,5.7778s-.8066,4.2867-2.4189,5.871c-1.6133,1.5842-3.598,2.3919-5.9231,2.3919s-4.2798-.8077-5.8921-2.3919c-1.6129-1.5843-2.4191-3.5412-2.4191-5.871h.062ZM101.0324,53.5244c0,2.2676.5271,4.1314,1.6123,5.5292,1.0852,1.3979,2.5118,2.1124,4.2489,2.1124,1.7361,0,3.1936-.7145,4.3098-2.1434,1.1171-1.429,1.6442-3.2306,1.6442-5.374s-.5271-4.1624-1.6123-5.5603c-1.0862-1.3979-2.4818-2.1123-4.187-2.1123s-3.2875.6834-4.3727,2.0502c-1.0852,1.3668-1.6432,3.1994-1.6432,5.4982Z"/>
      <path d="M130.1525,58.0902v-9.4122c0-.9009-.1238-1.5532-.3724-1.926-.2476-.3728-.6819-.5591-1.3018-.5902v-.466h5.4888v.466c-.6519,0-1.1171.1864-1.3957.5591-.2486.3728-.3724,1.0251-.3724,1.9571v9.7539c0,.9008.1238,1.5532.3724,1.9259.2476.3728.7128.5592,1.3957.5592v.466h-3.8455v-2.1745c-1.4575,1.7085-3.1946,2.5783-5.2102,2.5783s-2.9461-.497-3.8765-1.4911c-.9294-.994-1.4256-2.2987-1.4256-3.9139v-7.6727c0-.9319-.1248-1.5842-.3724-1.957-.2486-.3728-.7138-.5592-1.3957-.5592v-.4659h5.6435v.4659c-.7128,0-1.178.1864-1.4256.5281-.2486.3417-.3724.9941-.3724,1.926v7.9212c0,1.2736.3404,2.2987,1.0542,3.0132.7128.7455,1.6742,1.0872,2.9151,1.0872,1.8609,0,3.3494-.8698,4.4655-2.6094l.031.0311Z"/>
      <path d="M145.6255,45.54h.4343v3.6654h-.4652c-.0928-1.0251-.4652-1.8017-1.0852-2.3609-.62-.5591-1.3957-.8387-2.357-.8387s-1.5195.2175-2.0466.6523c-.5271.4349-.7747.9941-.7747,1.7086s.2166,1.2425.6509,1.8017c.4343.5281,1.3338,1.2425,2.7604,2.0812,1.6433.9941,2.7594,1.8328,3.3174,2.5783.5581.7456.8376,1.5843.8376,2.5162s-.4343,2.2677-1.3028,3.1374c-.8675.8698-1.9228,1.3047-3.1317,1.3047s-1.6123-.1863-2.6975-.5902c-.4652-.1553-.7448-.2485-.8685-.2485-.2486,0-.4652.1864-.589.5902h-.4652v-4.2246h.4652c0,1.1494.3714,2.0813,1.1471,2.7958.7438.7145,1.6123,1.0562,2.6046,1.0562s1.7061-.2486,2.2642-.7456c.5581-.497.8686-1.1804.8686-2.0191s-.2486-1.2426-.7138-1.8017c-.4652-.5902-1.4575-1.3358-2.946-2.2366-1.209-.7455-2.0156-1.3358-2.4189-1.7707-.4033-.4349-.7128-.9008-.8995-1.4289-.1857-.5281-.2785-1.0872-.2785-1.7085,0-1.2115.4033-2.1745,1.178-2.92.7757-.7455,1.799-1.1183,3.0698-1.1183,1.2719,0,1.4576.1243,2.2642.4038.3724.1243.6509.1864.8066.1864.1547,0,.2166,0,.2476-.0932,0-.0621.0928-.1864.1557-.3727h-.0319Z"/>
      <path d="M159.9225,51.6596h.4652v3.7896h-.4652c-.1547-.6523-.3724-1.0872-.6199-1.2425-.2486-.1553-.7757-.2485-1.5814-.2485h-3.8765v5.5914c0,.4038.0928.6523.2476.8387.1867.1553.4652.2485.8995.2485h2.7294c.9614,0,1.6433-.0621,2.0156-.1553.3724-.0932.6819-.3107.9304-.5902.2476-.2796.5271-.7456.8366-1.3979h.4652l-.7128,2.92h-11.2261v-.466c.7128,0,1.178-.1863,1.3957-.528.2476-.3728.3724-.9941.3724-1.926v-9.7539c0-.963-.1248-1.6154-.3724-1.9571-.2486-.3417-.7138-.5281-1.3957-.5281v-.4659h11.2261v2.6093h-.2795c-.1547-.7455-.3714-1.2425-.6819-1.491-.3105-.2485-.9304-.3728-1.9228-.3728h-4.4964v6.6786h4.3727c.589,0,.9923-.0932,1.209-.3106.2176-.2174.3724-.6213.4652-1.2115v-.031Z"/>
    </g>
    <g fill="#091e57">
      <path d="M79.8518,72.2545h1.6126v.1553c-.4962.0311-.5272.0622-.5272.5902v1.7707c0,.7766.1861,1.491,1.1475,1.491s1.2404-.7144,1.2404-1.5221v-1.6774c0-.4971-.093-.5902-.5583-.6524v-.1553h1.4265v.1553c-.4651.0311-.5582.1553-.5582.6524v1.7085c0,1.0561-.5272,1.7706-1.6435,1.7706s-1.6126-.6523-1.6126-1.7396v-1.8017c0-.3727-.1758-.5695-.5272-.5902v-.1553Z"/>
      <path d="M84.3507,73.1562h.9923l2.1088,2.5162v-1.8328c0-.4348-.062-.497-.5272-.528v-.1554h1.2405v.1554c-.3722,0-.4652.1242-.4652.528v2.6405h-.2481l-2.2328-2.6405v1.9571c0,.4349.062.497.5271.5281v.1553h-1.2404v-.1553c.4031-.0622.4652-.1243.4652-.5281v-2.1434c-.1551-.2175-.3411-.3107-.5892-.3107v-.1553l-.031-.0311Z"/>
      <path d="M88.5968,76.48v-.1553c.4342,0,.4342-.0311.4342-.466v-2.1123c0-.4039,0-.4349-.4342-.4349v-.1554h1.4265v.1554c-.2895,0-.4342.1449-.4342.4349v2.1123c0,.4038,0,.4349.4342.466v.1553h-1.4265Z"/>
      <path d="M90.4598,73.1562h1.4265v.1554c-.2481,0-.3411.0621-.3411.2485s0,.1242.0621.2174l.7132,2.0502.8994-2.1123v-.1864c0-.1553-.1241-.2174-.3722-.2174v-.1554h1.1164v.1554c-.2481,0-.3411.0621-.4342.2795l-1.2404,2.889h-.3102l-.9613-2.5473c-.1551-.4659-.3102-.6212-.5892-.6212v-.1554h.0309Z"/>
      <path d="M96.9392,76.4794h-2.4808v-.1553c.4342,0,.4342-.0311.4342-.466v-2.1123c0-.4038,0-.4349-.4342-.466v-.1553h2.2638v.7766h-.1241c-.093-.466-.217-.5902-.5582-.5902h-.5892v1.3047h.3722c.3101,0,.4341-.1243.4651-.4039h.1241v1.0562h-.1241c0-.3417-.1241-.4349-.4651-.4349h-.3722v1.0562c0,.2796.1241.3728.5272.3728.6512,0,.7442-.0622.9923-.6524h.1241l-.1551.8698Z"/>
      <path d="M100.1349,76.4794c-.1857,0-.2476-.0621-.651-.7145l-.4651-.7766h-.4342v.8698c0,.4039,0,.4349.4342.466v.1553h-1.4265v-.1553c.4342,0,.4342-.0311.4342-.466v-2.1123c0-.4038,0-.4349-.4342-.466v-.1553h1.4885c.2481,0,.4342,0,.5892.0621.3102.0932.5268.4039.5268.7766s-.3095.7766-.7129.9009l.4963.7455c.2166.3417.5271.6834.6819.7455v.0622h-.5581v.0621h.0309ZM98.9257,73.3421h-.3411v1.46h.3411c.4651,0,.7132-.2486.7132-.7766s-.217-.7145-.7132-.7145v.0311Z"/>
      <path d="M102.0876,76.5404c-.2785,0-.62-.0621-.7747-.1243-.0928,0-.1248-.0621-.1248-.1553v-.6834h.1248c0,.2174.0619.3106.1547.4038.1547.2175.3724.3417.6509.3417.4343,0,.6519-.2485.6519-.5902s-.0619-.3417-.2176-.497c-.1547-.1553-.2785-.2174-.6819-.497-.4652-.3107-.6509-.5281-.6509-.8387,0-.4971.4652-.8388,1.178-.8388s.5271.0622.6509.0932c.0619,0,.0619.0311.0619.1243v.5902h-.1238c-.0928-.4038-.2785-.5902-.6509-.5902s-.5271.1864-.5271.4659,0,.2175.1238.3107c.0829.0828.3304.2795.7448.5902.5271.3728.7128.6213.7128.963,0,.5591-.5271.9319-1.3028.9319Z"/>
      <path d="M104.0113,76.48v-.1553c.4343,0,.4343-.0311.4343-.466v-2.1123c0-.4039,0-.4349-.4343-.4349v-.1554h1.4266v.1554c-.2895,0-.4343.1449-.4343.4349v2.1123c0,.4038,0,.4349.4343.466v.1553h-1.4266Z"/>
      <path d="M108.8482,73.8701c-.0938-.1553-.1248-.2174-.1557-.2795-.1238-.1864-.3095-.2796-.5271-.2796h-.4343v2.5162c0,.4038,0,.4349.4343.4659v.1553h-1.4266v-.1553c.4343,0,.4343-.031.4343-.4659v-2.5162h-.4343c-.3404,0-.4343.0932-.7128.5281h-.1238l.1238-.7145h2.8223l.1238.7145h-.1238v.031Z"/>
      <path d="M109.3134,73.1574h1.3637v.1553c-.2166,0-.3095.0621-.3095.1553s0,.1242.0928.2174l.589,1.1805.6829-1.1805c0-.031.0619-.1242.0619-.1863,0-.1243-.1248-.1864-.3414-.2175v-.1553h1.0852v.1553c-.2166,0-.3095.0621-.4033.2485l-.8366,1.429c-.0619.0931-.0619.1863-.0619.3417v.497c0,.4038,0,.4349.4333.4659v.1554h-1.4256v-.1554c.4333,0,.4333-.031.4333-.4659v-.6834l-.7747-1.46c-.1547-.2796-.3105-.4039-.5271-.4039v-.1553l-.0619.0622Z"/>
      <path d="M116.2907,75.9209c-.3105.4038-.7128.6213-1.1471.6213-.6519,0-.9614-.497-.9614-1.0872,0-.963.7128-2.0503,1.767-2.0503s.8995.4039.8995,1.0252-.2166,1.0872-.5271,1.5221h-.0309v-.0311ZM115.7946,73.5602c-.2486,0-.4962.1863-.6509.4659-.2486.4349-.4033,1.0562-.4033,1.5843s.1547.7455.4652.7455c.3095,0,.589-.2485.7747-.7455.1867-.4349.2795-.9009.2795-1.3358s-.1547-.7144-.4652-.7144Z"/>
      <path d="M120.0434,72.5329l-.1248.0621c-.1238-.2174-.3095-.3417-.5581-.3417-.4033,0-.6509.3417-.8056,1.0872v.1243h.8675v.1243l-.1547.1242h-.7757l-.1238.6213c-.3414,1.5842-.6819,2.8889-.9923,3.6654h-.2785l.8675-4.2556h-.5581l.0619-.2485h.59c.1238-.4971.3095-.8077.6509-1.0873.3095-.2485.62-.3417,1.0233-.3417s.3414,0,.4652.1243l-.0928.4038-.0619-.0621Z"/>
      <path d="M124.1036,74.5538c-.2166.0621-.4343.0932-.8685.1243v-.1243c.3414,0,.4652-.0621.621-.1242.3095-.1554.4962-.5281.4962-.9941s-.3105-.963-.9923-.963h-.3724v3.2616c0,.5281,0,.5592.4962.5902v.1554h-1.6123v-.1554c.4962-.031.5271-.0621.5271-.5902v-2.7025c0-.5281,0-.5592-.5271-.5902v-.1554h1.5814c.9923,0,1.4885.3728,1.4885,1.1183s-.3105.9941-.8376,1.1805v-.0311Z"/>
      <path d="M127.9501,76.4794h-2.4808v-.1553c.4343,0,.4343-.0311.4343-.466v-2.1123c0-.4038,0-.4349-.4343-.466v-.1553h2.2642v.7766h-.1238c-.0928-.466-.2176-.5902-.5581-.5902h-.59v1.3047h.3724c.3105,0,.4343-.1243.4652-.4039h.1238v1.0562h-.1238c0-.3417-.1238-.4349-.4652-.4349h-.3724v1.0562c0,.2796.1248.3728.5271.3728.6519,0,.7447-.0622.9923-.6524h.1248l-.1557.8698Z"/>
      <path d="M128.4164,73.1562h.9923l2.1085,2.5162v-1.8328c0-.4348-.0619-.497-.5271-.528v-.1554h1.2409v.1554c-.3724,0-.4652.1242-.4652.528v2.6405h-.2486l-2.2323-2.6405v1.9571c0,.4349.0619.497.5271.5281v.1553h-1.2409v-.1553c.4033-.0622.4652-.1243.4652-.5281v-2.1434c-.1547-.2175-.3414-.3107-.589-.3107v-.1553l-.0309-.0311Z"/>
      <path d="M132.5115,73.1562h.9923l2.1085,2.5162v-1.8328c0-.4348-.0619-.497-.5271-.528v-.1554h1.2409v.1554c-.3724,0-.4652.1242-.4652.528v2.6405h-.2486l-2.2322-2.6405v1.9571c0,.4349.0619.497.5271.5281v.1553h-1.2409v-.1553c.4033-.0622.4652-.1243.4652-.5281v-2.1434c-.1547-.2175-.3414-.3107-.589-.3107v-.1553l-.031-.0311Z"/>
      <path d="M137.6878,76.5404c-.2785,0-.62-.0621-.7747-.1243-.0619,0-.1238-.0621-.1238-.1553v-.6834h.1238c0,.2174.0928.3106.1547.4038.1557.2175.3724.3417.6519.3417.4333,0,.6509-.2485.6509-.5902s-.0619-.3417-.2176-.497c-.1547-.1553-.2785-.2174-.6819-.497-.4652-.3107-.6509-.5281-.6509-.8387,0-.4971.4652-.8388,1.178-.8388.7138,0,.5271.0622.6509.0932.0629,0,.0629.0311.0629.1243v.5902h-.1248c-.0928-.4038-.2785-.5902-.6509-.5902s-.5271.1864-.5271.4659,0,.2175.1238.3107c.0829.0828.3304.2795.7447.5902.5271.3728.7128.6213.7128.963,0,.5591-.5271.9319-1.3028.9319Z"/>
      <path d="M139.363,73.1574h1.3647v.1553c-.2166,0-.3105.0621-.3105.1553s0,.1242.0938.2174l.589,1.1805.6819-1.1805c0-.031.0619-.1242.0619-.1863,0-.1243-.1238-.1864-.3404-.2175v-.1553h1.0852v.1553c-.2176,0-.3105.0621-.4033.2485l-.8376,1.429c-.0619.0931-.0619.1863-.0619.3417v.497c0,.4038,0,.4349.4343.4659v.1554h-1.4266v-.1554c.4343,0,.4343-.031.4343-.4659v-.6834l-.7757-1.46c-.1547-.2796-.3095-.4039-.5271-.4039v-.1553l-.0619.0622Z"/>
      <path d="M145.5027,76.48h-2.5118v-.1553c.4343,0,.4343-.0622.4343-.466v-2.1123c0-.3107,0-.3417-.0619-.3728-.0619-.0311-.1547-.0621-.3724-.0621v-.1554h1.3957v.1554c-.4343,0-.4343.031-.4343.4349v2.2055c0,.2485.1248.3106.5581.3106.6519,0,.7447-.0621.9923-.6523h.1248l-.1557.8698h.0309Z"/>
      <path d="M145.6574,73.1562h1.4266v.1554c-.2486,0-.3414.0621-.3414.2485s0,.1242.0619.2174l.7138,2.0502.8995-2.1123v-.1864c0-.1553-.1248-.2174-.3724-.2174v-.1554h1.1161v.1554c-.2476,0-.3414.0621-.4343.2795l-1.2399,2.889h-.3105l-.9614-2.5473c-.1547-.4659-.3095-.6212-.589-.6212v-.1554h.0309Z"/>
      <path d="M151.0234,76.4783v-.1554c.2166,0,.3095-.0621.3095-.2174v-.1553l-.2166-.5592h-1.2409l-.2166.5592v.1242c0,.1243.0928.2175.2785.2175v.1553h-.9923v-.1553c.2176,0,.3414-.1243.4962-.466l1.1171-2.7647h.3095l1.0542,2.7958c.1248.3417.2176.4038.4343.4349v.1553h-1.3018l-.031.0311ZM150.4963,73.7447l-.5591,1.429h1.0862l-.5271-1.429Z"/>
      <path d="M152.5119,73.1562h.9923l2.1095,2.5162v-1.8328c0-.4348-.0619-.497-.5271-.528v-.1554h1.2399v.1554c-.3724,0-.4652.1242-.4652.528v2.6405h-.2476l-2.2332-2.6405v1.9571c0,.4349.0619.497.5271.5281v.1553h-1.2399v-.1553c.4033-.0622.4652-.1243.4652-.5281v-2.1434c-.1557-.2175-.3414-.3107-.589-.3107v-.1553l-.0319-.0311Z"/>
      <path d="M156.7927,76.48v-.1553c.4333,0,.4333-.0311.4333-.466v-2.1123c0-.4039,0-.4349-.4333-.4349v-.1554h1.4256v.1554c-.2885,0-.4333.1449-.4333.4349v2.1123c0,.4038,0,.4349.4333.466v.1553h-1.4256Z"/>
      <path d="M160.79,76.4783v-.1554c.2166,0,.3105-.0621.3105-.2174v-.1553l-.2176-.5592h-1.2399l-.2176.5592v.1242c0,.1243.0928.2175.2795.2175v.1553h-.9923v-.1553c.2166,0,.3414-.1243.4962-.466l1.1161-2.7647h.3105l1.0542,2.7958c.1238.3417.2166.4038.4343.4349v.1553h-1.3028l-.031.0311ZM160.2629,73.7447l-.5581,1.429h1.0852l-.5271-1.429Z"/>
    </g>
    <path d="M162.0339,66.5703h-82.2105v.497h82.2105v-.497Z" fill="#091e57"/>
  </g>
  <path d="M177.1985,1.2746h-.62v75.1733h.62V1.2746Z" fill="#091e57"/>
  <g>
    <g fill="#091e57">
      <path d="M194.0981,53.6771v-2.8268c6.7916-.4348,7.6911-.5902,8.4348-1.7085.4343-.7455.6519-1.9881.6519-6.368V12.922c0-2.0812-1.0233-3.0442-3.2565-3.0442s-2.8223.3106-4.3727.7455l-3.5351.963-.8066-3.417,26.5454-7.2688v41.8423c0,4.9701.1557,5.9331,1.0233,6.7407.8995.7456,1.8609.963,8.1254,1.3358v2.8268h-32.8099v.031Z"/>
      <path d="M246.1986,54.5453c-13.086,0-21.8004-10.6547-21.8004-26.7456S232.9888.9299,246.4162.9299s21.5838,10.7479,21.5838,26.7456-8.5906,26.8698-21.8014,26.8698ZM251.9669,9.6898c-.9614-3.5412-2.8841-5.5603-5.7054-5.5603s-5.334,2.2987-6.1407,7.0203c-.5271,2.7336-.8995,10.3751-.8995,16.3703s.4343,15.4696,1.179,18.2963c.8985,3.6344,2.8832,5.4672,5.7673,5.4672s5.2412-2.2988,6.0479-6.9582c.5271-2.7337.8056-10.5305.8056-16.6499s-.3714-15.2522-1.1161-17.9857h.0619Z"/>
    </g>
    <g fill="#091e57">
      <path d="M194.2229,61.7229h6.4192v.6523c-.9923,0-1.3328.2485-1.3328.7766s.1238.6523.3095,1.0562l2.6985,5.5292,2.977-5.4671c.2166-.4038.3095-.7145.3095-.963,0-.6523-.6509-.8698-1.5813-.9319v-.6523h4.5593v.6523c-.7757,0-1.21.3106-1.7061,1.2115l-3.4732,6.368c-.3105.5591-.4033.9319-.4033,1.7706v2.423c0,1.6774,0,1.7396,1.8609,1.8638v.6524h-6.7606v-.6524c1.8299-.1242,1.8609-.1864,1.8609-1.8638v-3.2928l-3.3184-6.6786c-.589-1.1804-1.2709-1.8017-2.388-1.8328v-.6523h-.031v.0311Z"/>
      <path d="M221.8844,76.6959h-11.3809v-.6523c1.8299-.1243,1.8609-.1864,1.8609-1.8639v-9.9091c0-1.6775,0-1.7396-1.8609-1.8949v-.6524h10.5752v3.4171h-.589c-.4343-2.0192-1.0233-2.6094-2.5118-2.6094h-2.5747v5.9331h1.799c1.3028,0,1.8918-.5902,1.9537-2.0191h.589v4.9701h-.589c-.0928-1.4911-.6509-2.1124-1.9537-2.1124h-1.799v4.8459c0,1.3668.4343,1.7396,2.357,1.7396s3.1008-.5592,4.2179-3.0443h.589l-.6509,3.8829-.0319-.0311Z"/>
      <path d="M233.0487,76.6958v-.6523c.8675-.0311,1.209-.2796,1.209-.8698s-.0619-.4349-.1857-.7145l-.8685-2.5161h-5.1484l-.8675,2.5161c-.0938.2485-.0938.4039-.0938.5902,0,.5903.3105.9319,1.0862.9941v.6523h-4.2179v-.6523c1.1471-.0622,1.7371-.7145,2.5737-2.9511l4.4036-11.6177h1.4266l4.0312,11.1518c.9923,2.7957,1.4266,3.2616,2.5747,3.3859v.6523h-5.955l.0319.0311ZM230.7845,64.6122l-2.388,6.3369h4.4655l-2.0775-6.3369Z"/>
      <path d="M252.0578,76.6959c-.3714,0-.6509-.1553-.9614-.4349-.3095-.3106-.7747-1.1493-1.209-1.8638l-2.5427-4.2867h-1.5813v4.0692c0,1.6464.0928,1.7086,1.8599,1.8639v.6523h-6.7596v-.6523c1.8289-.1243,1.8599-.1864,1.8599-1.8639v-9.9091c0-1.6775,0-1.7396-1.8599-1.8949v-.6524h7.5044c2.8841,0,4.5583,1.3979,4.5583,3.7897s-1.1471,3.417-3.1936,4.1625l2.6356,3.6965c.9304,1.3047,1.5504,2.1123,2.5118,2.92v.4038h-2.8841.0619ZM247.2518,62.531h-1.4576v6.7408h1.3018c.7757,0,1.2719-.1554,1.6752-.466.7128-.5902,1.0542-1.7396,1.0542-3.0753,0-2.2055-.7757-3.1995-2.5737-3.1995Z"/>
      <path d="M261.0497,76.9426c-1.4575,0-3.3184-.3727-4.0003-.7144-.1857-.0932-.2166-.1553-.2166-.3728v-3.1996h.589c.1547.8698.3724,1.429.6509,1.9571.5581.9008,1.4575,1.5221,2.6366,1.5221,1.178,0,2.7594-1.1494,2.7594-2.6715s-.7128-2.2366-3.597-4.2867c-2.0775-1.46-2.9151-2.4541-2.9151-4.0071,0-2.7647,2.8532-3.6655,5.1474-3.6655s2.7603.1243,3.2256.3417c.2476.0932.3105.1864.3105.5281v2.7647h-.59c-.589-1.9881-1.3947-2.7958-2.7594-2.7958s-2.0775.8698-2.0775,2.1124.0929.8077.3095,1.1183c.3724.6523.589.8698,2.5737,2.2987,2.7913,2.0813,3.7217,3.1996,3.7217,4.908,0,2.5472-2.2332,4.1935-5.7064,4.1935h-.0619v-.0311Z"/>
    </g>
  </g>
</svg>