<?xml version="1.0" encoding="UTF-8"?><svg id="Layer_1" xmlns="http://www.w3.org/2000/svg" xmlns:xlink="http://www.w3.org/1999/xlink" viewBox="0 0 260 88"><defs><style>.cls-1{fill:none;}.cls-2{fill:url(#linear-gradient);}.cls-3{clip-path:url(#clippath);}.cls-4{fill:#69bae9;}.cls-5{fill:#68beec;}.cls-6{fill:#68bcea;}.cls-7{fill:#67bfec;}.cls-8{fill:#68bdeb;}.cls-9{fill:#67c0ed;}.cls-10{fill:#66e4e2;}.cls-11{fill:#67e5df;}.cls-12{fill:#67e5e0;}.cls-13{fill:#67e4e1;}.cls-14{fill:#66e3e3;}.cls-15{fill:#65e2e6;}.cls-16{fill:#65c3ef;}.cls-17{fill:#65c4f0;}.cls-18{fill:#64e2e8;}.cls-19{fill:#64e2e7;}.cls-20{fill:#69bbea;}.cls-21{fill:#68e6dc;}.cls-22{fill:#68e5de;}.cls-23{fill:#6ab9e8;}.cls-24{fill:#6ab8e7;}.cls-25{fill:#69e6db;}.cls-26{fill:#69e7da;}.cls-27{fill:#64c5f1;}.cls-28{fill:#72efc3;}.cls-29{fill:#65e3e5;}.cls-30{fill:#65e3e4;}.cls-31{fill:#73a5da;}.cls-32{fill:#73a6db;}.cls-33{fill:#63c7f2;}.cls-34{fill:#66c2ef;}.cls-35{fill:#66c1ee;}.cls-36{fill:#63c8f3;}.cls-37{fill:#6bb6e6;}.cls-38{fill:#6bb7e7;}.cls-39{fill:#7cf9aa;}.cls-40{fill:#7cf9a8;}.cls-41{fill:#6ae8d8;}.cls-42{fill:#6ae7d9;}.cls-43{fill:#7dfaa6;}.cls-44{fill:#7bf8ac;}.cls-45{fill:#82ff99;}.cls-46{fill:#63e1ea;}.cls-47{fill:#63e1e9;}.cls-48{fill:#63e1eb;}.cls-49{fill:#71efc4;}.cls-50{fill:#71eec6;}.cls-51{fill:#64c6f1;}.cls-52{fill:#72a8dc;}.cls-53{fill:#72a7db;}.cls-54{fill:#6cead2;}.cls-55{fill:#6dead1;}.cls-56{fill:#6fade0;}.cls-57{fill:#6fafe1;}.cls-58{fill:#6faee0;}.cls-59{fill:#6eebce;}.cls-60{fill:#70abde;}.cls-61{fill:#6fedca;}.cls-62{fill:#71a9dd;}.cls-63{fill:#6eb0e2;}.cls-64{fill:#6debd0;}.cls-65{fill:#6eb1e2;}.cls-66{fill:#6ce9d4;}.cls-67{fill:#6db2e3;}.cls-68{fill:#6db3e4;}.cls-69{fill:#6eeccd;}.cls-70{fill:#6be9d5;}.cls-71{fill:#6be8d6;}.cls-72{fill:#6cb4e5;}.cls-73{fill:#6cb5e5;}.cls-74{fill:#7efba4;}.cls-75{fill:#7efba3;}.cls-76{fill:#62e0ec;}.cls-77{fill:#62e0ed;}.cls-78{fill:#61ccf6;}.cls-79{fill:#61cdf6;}.cls-80{fill:#61dff0;}.cls-81{fill:#61dfee;}.cls-82{fill:#61dfef;}.cls-83{fill:#61def1;}.cls-84{fill:#62caf4;}.cls-85{fill:#62cbf5;}.cls-86{fill:#62c9f4;}.cls-87{fill:#80fd9f;}.cls-88{fill:#60cff8;}.cls-89{fill:#60cef7;}.cls-90{fill:#5dd4fb;}.cls-91{fill:#60def1;}.cls-92{fill:#60def3;}.cls-93{fill:#60def2;}.cls-94{fill:#5edcf6;}.cls-95{fill:#5edcf7;}.cls-96{fill:#5edcf8;}.cls-97{fill:#5edbf8;}.cls-98{fill:#5ed3fb;}.cls-99{fill:#5ed2fa;}.cls-100{fill:#5ddbf9;}.cls-101{fill:#5ddbfa;}.cls-102{fill:#5ddbfb;}.cls-103{fill:#5ddafb;}.cls-104{fill:#5dd5fc;}.cls-105{fill:#5cd6fd;}.cls-106{fill:#73f1c0;}.cls-107{fill:#73f0c1;}.cls-108{fill:#81fe9b;}.cls-109{fill:#81fe9d;}.cls-110{fill:#74a4d9;}.cls-111{fill:#75a1d7;}.cls-112{fill:#74f1be;}.cls-113{fill:#75a2d8;}.cls-114{fill:#74f2bd;}.cls-115{fill:#76a0d6;}.cls-116{fill:#75f2bb;}.cls-117{fill:#5fd0f9;}.cls-118{fill:#5fd1f9;}.cls-119{fill:#77f4b6;}.cls-120{fill:#5bd8fe;}.cls-121{fill:#5bd9fe;}.cls-122{fill:#5bd9ff;}.cls-123{fill:#78f5b4;}.cls-124{fill:#78f5b3;}.cls-125{fill:#5cdafb;}.cls-126{fill:#5cdafe;}.cls-127{fill:#5cdafd;}.cls-128{fill:#5cdafc;}.cls-129{fill:#5cd7fe;}.cls-130{fill:#5fddf5;}.cls-131{fill:#5fddf4;}.cls-132{fill:#5fddf3;}.cls-133{fill:#6feccc;}.cls-134{fill:#70acdf;}.cls-135{fill:#70edc9;}.cls-136{fill:#71aadd;}.cls-137{fill:#70eec7;}.cls-138{fill:#76f3b9;}.cls-139{fill:#76f4b8;}.cls-140{fill:#7ffca1;}.cls-141{fill:#7af7ae;}.cls-142{fill:#74a3d8;}.cls-143{fill:#79f6b1;}.cls-144{fill:#79f7af;}.cls-145{fill:#515151;}</style><linearGradient id="linear-gradient" x1="74.03" y1="74.38" x2="13.73" y2="14.08" gradientUnits="userSpaceOnUse"><stop offset="0" stop-color="#82ff99"/><stop offset=".04" stop-color="#81f2b2"/><stop offset=".1" stop-color="#80e5ce"/><stop offset=".16" stop-color="#7fdbe3"/><stop offset=".23" stop-color="#7fd3f3"/><stop offset=".31" stop-color="#7fcffc"/><stop offset=".43" stop-color="#7fceff"/><stop offset=".53" stop-color="#82bef3"/><stop offset=".73" stop-color="#8997d4"/><stop offset="1" stop-color="#9658a3"/><stop offset="1" stop-color="#9757a3"/></linearGradient><clipPath id="clippath"><path class="cls-1" d="M55.74,20.07l-.58,5.91-5.17,6.29-2.32-2.38,8.07-9.82Zm-27.68-2.92l-.58,5.91,10.1,10.51,2.93-3.56-12.45-12.86Zm-9.76,11.87l-.58,5.91,10.14,10.47,2.89-3.52-12.45-12.86Zm39.23,11l2.32,2.38,5.14-6.25,.58-5.91-8.05,9.78Zm-22.97,5.79h0s0,0,0,0l-7.83,9.52h0s-3.63-4.14-3.63-4.14l-.58,5.91,3.63,4.14h0s7.83-9.53,7.83-9.53l3.69,3.89,2.93-3.56-6.04-6.24Zm32.06,11.16h0s-12.45-12.86-12.45-12.86h0s0,0,0,0h0s0,0,0,0h0s-6.4,7.78-6.4,7.78l2.32,2.38,3.5-4.25,12.45,12.86h0s3.4-4.13,3.4-4.13l.58-5.91-3.4,4.13Zm-22.3-23.03l-6.42,7.81,2.3,2.4,2.38-2.89,1.16-1.41,3.69,3.89,2.93-3.56-6.04-6.24Zm12.54,34.89h0s-12.45-12.86-12.45-12.86l-7.83,9.52-3.64-4.14-.58,5.91,3.64,4.14h0s7.83-9.52,7.83-9.52h0s12.45,12.86,12.45,12.86h0s3.39-4.13,3.39-4.13l.58-5.91-3.39,4.13Z"/></clipPath></defs><g><g><path class="cls-122" d="M107.54,38.34c-3.09,0-4.76-1.29-5.88-3.07-.33-.57-.7-1.18-.7-1.4,0-.11,.07-.19,.22-.27l2.98-1.55c.15-.08,.3-.19,.45-.19,.11,0,.22,.07,.3,.27,.67,1.63,1.64,2.23,2.64,2.23h1.49c1.45,0,2.68-1.25,2.68-2.73,0-2.05-1.97-2.8-3.98-3.75-2.94-1.44-6.18-2.99-6.18-7.46,0-3.94,2.68-6.71,6.92-6.71h.6c3.09,0,4.76,1.29,5.88,3.07,.34,.57,.71,1.17,.71,1.4,0,.11-.07,.19-.22,.27l-2.98,1.55c-.15,.08-.3,.19-.45,.19-.11,0-.22-.08-.3-.26-.67-1.63-1.64-2.24-2.64-2.24h-.6c-1.45,0-2.68,1.25-2.68,2.73,0,1.93,2.16,2.5,4.31,3.52,2.83,1.33,5.84,3.11,5.84,7.69,0,3.94-2.68,6.71-6.92,6.71h-1.49Z"/><path class="cls-122" d="M135.19,29.51c.26,0,.41-.15,.41-.34,0-.15-.11-.49-.19-.72l-1.08-4.43c-.07-.27-.33-1.78-.41-2.08h-.11c-.07,.3-.37,1.78-.45,2.08l-1.12,4.4c-.08,.26-.19,.61-.19,.76,0,.19,.15,.34,.41,.34h2.71Zm-9.6,8.45c-.26,0-.41-.11-.41-.3,0-.15,.11-.38,.19-.68l6.77-22.62c.04-.19,.19-.26,.37-.26h2.68c.19,0,.34,.07,.37,.26l6.77,22.62c.07,.23,.19,.53,.19,.68,0,.19-.15,.3-.41,.3h-3.76c-.19,0-.33-.08-.37-.26l-1.12-3.98c-.04-.19-.19-.23-.37-.23h-5.32c-.19,0-.33,.04-.37,.23l-1.12,3.98c-.04,.19-.19,.26-.37,.26h-3.72Z"/><path class="cls-122" d="M152.54,37.96c-.26,0-.37-.11-.37-.38V14.47c0-.27,.11-.38,.37-.38h13.13c.26,0,.37,.11,.37,.38v3.22c0,.27-.11,.38-.37,.38h-8.85c-.26,0-.37,.11-.37,.38v5.04c0,.26,.11,.38,.37,.38h7.26c.26,0,.37,.11,.37,.38v3.22c0,.26-.11,.38-.37,.38h-7.26c-.26,0-.37,.11-.37,.38v9.36c0,.27-.11,.38-.37,.38h-3.53Z"/><path class="cls-122" d="M176.88,37.96c-.26,0-.37-.11-.37-.38V14.47c0-.27,.11-.38,.37-.38h13.13c.26,0,.37,.11,.37,.38v3.22c0,.27-.11,.38-.37,.38h-8.85c-.26,0-.37,.11-.37,.38v5.04c0,.26,.11,.38,.37,.38h7.26c.26,0,.37,.11,.37,.38v3.22c0,.26-.11,.38-.37,.38h-7.26c-.26,0-.37,.11-.37,.38v5.38c0,.27,.11,.38,.37,.38h8.85c.26,0,.37,.11,.37,.38v3.22c0,.27-.11,.38-.37,.38h-13.13Z"/></g><g><path class="cls-145" d="M117.84,72.5h-12.15c-.35,0-.47-.11-.47-.4v-23.43c0-.29-.12-.4-.41-.4h-2.01c-.3,0-.47,.11-.47,.4v25.69c0,.29,.18,.4,.47,.4h15.05c.3,0,.42-.12,.42-.4v-1.38c0-.29-.12-.46-.42-.46Z"/><path class="cls-145" d="M144.75,48.25h-1.66c-.18,0-.36,.06-.41,.29l-8.59,25.69c-.06,.06-.06,.11-.06,.17,0,.23,.18,.35,.47,.35h2.19c.24,0,.41-.06,.47-.29l6.22-19.86c.12-.35,.41-1.33,.47-1.62h.18c.06,.29,.36,1.21,.47,1.62l2.84,9.07h-3.22l-.41,1.37c-.1,.31,.09,.42,.25,.42h3.94l2.82,8.99c.06,.23,.18,.29,.41,.29h2.19c.3,0,.47-.12,.47-.29s-.24-.69-8.65-25.92c0-.23-.18-.29-.41-.29Z"/><path class="cls-145" d="M187.36,60.89c1.84-.86,3.2-3.29,3.2-4.91v-.46c0-4.45-2.96-7.27-7.59-7.27h-9.25c-.3,0-.47,.12-.47,.4v25.69c0,.29,.18,.4,.47,.4h9.25c4.62,0,7.59-2.83,7.59-7.27v-.64c0-2.48-1.66-4.44-3.26-5.19-.41-.23-.36-.58,.06-.75Zm.3,6.06v.86c0,2.54-2.07,4.68-4.68,4.68h-6.34c-.35,0-.47-.11-.47-.4v-9.29c0-.29,.12-.4,.47-.4h6.34c2.61,0,4.68,2.13,4.68,4.56Zm-4.68-6.81h-6.34c-.35,0-.47-.11-.47-.4v-8.83c0-.29,.12-.46,.47-.46h6.34c2.61,0,4.68,2.19,4.68,4.68v.4c0,2.54-2.07,4.62-4.68,4.62Z"/></g></g><g><path class="cls-2" d="M43.88,86.93C20.38,86.93,1.26,67.77,1.26,44.23S20.38,1.53,43.88,1.53s42.62,19.15,42.62,42.7-19.12,42.7-42.62,42.7Zm0-82.55C21.99,4.38,4.18,22.26,4.18,44.23s17.81,39.85,39.69,39.85,39.69-17.88,39.69-39.85S65.76,4.38,43.88,4.38Z"/><g class="cls-3"><polygon class="cls-130" points="32.64 55.98 32.36 56.26 32.36 55.98 32.64 55.98"/><polygon class="cls-130" points="33.25 55.98 32.36 56.87 32.36 56.26 32.64 55.98 33.25 55.98"/><polygon class="cls-94" points="33.87 55.98 32.36 57.49 32.36 56.87 33.25 55.98 33.87 55.98"/><polygon class="cls-95" points="34.48 55.98 32.36 58.1 32.36 57.49 33.87 55.98 34.48 55.98"/><polygon class="cls-95" points="35.09 55.98 32.36 58.71 32.36 58.1 34.48 55.98 35.09 55.98"/><polygon class="cls-96" points="35.7 55.98 32.36 59.32 32.36 58.71 35.09 55.98 35.7 55.98"/><polygon class="cls-97" points="36.31 55.98 32.36 59.93 32.36 59.32 35.7 55.98 36.31 55.98"/><polygon class="cls-100" points="36.92 55.98 32.36 60.54 32.36 59.93 36.31 55.98 36.92 55.98"/><polygon class="cls-100" points="37.53 55.98 32.36 61.15 32.36 60.54 36.92 55.98 37.53 55.98"/><polygon class="cls-101" points="38.15 55.98 32.36 61.76 32.36 61.15 37.53 55.98 38.15 55.98"/><polygon class="cls-101" points="38.76 55.98 32.36 62.38 32.36 61.76 38.15 55.98 38.76 55.98"/><polygon class="cls-102" points="39.37 55.98 32.36 62.99 32.36 62.38 38.76 55.98 39.37 55.98"/><polygon class="cls-103" points="39.98 55.98 32.36 63.6 32.36 62.99 39.37 55.98 39.98 55.98"/><polygon class="cls-125" points="40.59 55.98 32.36 64.21 32.36 63.6 39.98 55.98 40.59 55.98"/><polygon class="cls-128" points="41.2 55.98 32.36 64.82 32.36 64.21 40.59 55.98 41.2 55.98"/><polygon class="cls-128" points="41.81 55.98 32.36 65.43 32.36 64.82 41.2 55.98 41.81 55.98"/><polygon class="cls-127" points="42.42 55.98 32.36 66.04 32.36 65.43 41.81 55.98 42.42 55.98"/><polygon class="cls-127" points="43.04 55.98 32.36 66.66 32.36 66.04 42.42 55.98 43.04 55.98"/><polygon class="cls-127" points="43.65 55.98 32.36 67.27 32.36 66.66 43.04 55.98 43.65 55.98"/><polygon class="cls-127" points="44.26 55.98 32.36 67.88 32.36 67.27 43.65 55.98 44.26 55.98"/><polygon class="cls-126" points="44.87 55.98 32.36 68.49 32.36 67.88 44.26 55.98 44.87 55.98"/><polygon class="cls-121" points="45.48 55.98 32.36 69.1 32.36 68.49 44.87 55.98 45.48 55.98"/><polygon class="cls-121" points="46.09 55.98 32.36 69.71 32.36 69.1 45.48 55.98 46.09 55.98"/><polygon class="cls-121" points="46.7 55.98 32.36 70.32 32.36 69.71 46.09 55.98 46.7 55.98"/><polygon class="cls-121" points="47.32 55.98 32.36 70.93 32.36 70.32 46.7 55.98 47.32 55.98"/><polygon class="cls-122" points="47.93 55.98 32.36 71.55 32.36 70.93 47.32 55.98 47.93 55.98"/><polygon class="cls-122" points="48.54 55.98 32.43 72.09 32.36 72.01 32.36 71.55 47.93 55.98 48.54 55.98"/><polygon class="cls-122" points="49.15 55.98 32.74 72.39 32.43 72.09 48.54 55.98 49.15 55.98"/><polygon class="cls-122" points="49.76 55.98 33.04 72.7 32.74 72.39 49.15 55.98 49.76 55.98"/><polygon class="cls-122" points="50.37 55.98 33.35 73 33.04 72.7 49.76 55.98 50.37 55.98"/><polygon class="cls-122" points="50.98 55.98 33.66 73.31 33.35 73 50.37 55.98 50.98 55.98"/><polygon class="cls-122" points="51.59 55.98 33.96 73.61 33.66 73.31 50.98 55.98 51.59 55.98"/><polygon class="cls-122" points="52.07 55.98 34.2 73.85 33.96 73.61 51.59 55.98 52.07 55.98"/><polygon class="cls-120" points="52.55 55.98 34.44 74.09 34.2 73.85 52.07 55.98 52.55 55.98"/><polygon class="cls-129" points="53.03 55.98 34.68 74.33 34.44 74.09 52.55 55.98 53.03 55.98"/><polygon class="cls-105" points="53.51 55.98 34.92 74.57 34.68 74.33 53.03 55.98 53.51 55.98"/><polygon class="cls-104" points="53.99 55.98 35.22 74.75 35.09 74.75 34.92 74.57 53.51 55.98 53.99 55.98"/><polygon class="cls-90" points="54.47 55.98 35.7 74.75 35.22 74.75 53.99 55.98 54.47 55.98"/><polygon class="cls-98" points="54.95 55.98 36.18 74.75 35.7 74.75 54.47 55.98 54.95 55.98"/><polygon class="cls-99" points="55.43 55.98 36.66 74.75 36.18 74.75 54.95 55.98 55.43 55.98"/><polygon class="cls-118" points="55.77 55.98 55.84 56.05 37.14 74.75 36.66 74.75 55.43 55.98 55.77 55.98"/><polygon class="cls-117" points="55.84 56.05 56.08 56.29 37.62 74.75 37.14 74.75 55.84 56.05"/><polygon class="cls-88" points="56.08 56.29 56.32 56.53 38.1 74.75 37.62 74.75 56.08 56.29"/><polygon class="cls-89" points="56.32 56.53 56.56 56.76 38.58 74.75 38.1 74.75 56.32 56.53"/><polygon class="cls-79" points="56.56 56.76 56.8 57 39.06 74.75 38.58 74.75 56.56 56.76"/><polygon class="cls-78" points="56.8 57 57.04 57.24 39.54 74.75 39.06 74.75 56.8 57"/><polygon class="cls-85" points="57.04 57.24 57.28 57.48 40.02 74.75 39.54 74.75 57.04 57.24"/><polygon class="cls-84" points="57.28 57.48 57.52 57.72 40.49 74.75 40.02 74.75 57.28 57.48"/><polygon class="cls-86" points="57.52 57.72 57.76 57.96 40.97 74.75 40.49 74.75 57.52 57.72"/><polygon class="cls-36" points="57.76 57.96 58 58.2 41.45 74.75 40.97 74.75 57.76 57.96"/><polygon class="cls-33" points="58 58.2 58.24 58.44 41.93 74.75 41.45 74.75 58 58.2"/><polygon class="cls-51" points="58.24 58.44 58.48 58.68 42.41 74.75 41.93 74.75 58.24 58.44"/><polygon class="cls-27" points="58.48 58.68 58.72 58.92 42.89 74.75 42.41 74.75 58.48 58.68"/><polygon class="cls-17" points="58.72 58.92 58.96 59.16 43.37 74.75 42.89 74.75 58.72 58.92"/><polygon class="cls-16" points="58.96 59.16 59.19 59.4 43.85 74.75 43.37 74.75 58.96 59.16"/><polygon class="cls-34" points="59.19 59.4 59.43 59.64 44.33 74.75 43.85 74.75 59.19 59.4"/><polygon class="cls-35" points="59.43 59.64 59.67 59.88 44.81 74.75 44.33 74.75 59.43 59.64"/><polygon class="cls-9" points="59.67 59.88 59.91 60.12 45.29 74.75 44.81 74.75 59.67 59.88"/><polygon class="cls-7" points="59.91 60.12 60.15 60.36 45.77 74.75 45.29 74.75 59.91 60.12"/><polygon class="cls-5" points="60.15 60.36 60.26 60.47 60.26 60.73 46.24 74.75 45.77 74.75 60.15 60.36"/><polygon class="cls-8" points="60.26 61.21 46.72 74.75 46.24 74.75 60.26 60.73 60.26 61.21"/><polygon class="cls-6" points="60.26 61.69 47.2 74.75 46.72 74.75 60.26 61.21 60.26 61.69"/><polygon class="cls-20" points="60.26 62.17 47.68 74.75 47.2 74.75 60.26 61.69 60.26 62.17"/><polygon class="cls-4" points="60.26 62.65 48.16 74.75 47.68 74.75 60.26 62.17 60.26 62.65"/><polygon class="cls-23" points="60.26 63.12 48.64 74.75 48.16 74.75 60.26 62.65 60.26 63.12"/><polygon class="cls-24" points="60.26 63.6 49.12 74.75 48.64 74.75 60.26 63.12 60.26 63.6"/><polygon class="cls-38" points="60.26 64.08 49.6 74.75 49.12 74.75 60.26 63.6 60.26 64.08"/><polygon class="cls-37" points="60.26 64.56 50.08 74.75 49.6 74.75 60.26 64.08 60.26 64.56"/><polygon class="cls-73" points="60.26 65.04 50.56 74.75 50.08 74.75 60.26 64.56 60.26 65.04"/><polygon class="cls-72" points="60.26 65.52 51.04 74.75 50.56 74.75 60.26 65.04 60.26 65.52"/><polygon class="cls-68" points="60.26 66 51.51 74.75 51.04 74.75 60.26 65.52 60.26 66"/><polygon class="cls-67" points="60.26 66.48 51.99 74.75 51.51 74.75 60.26 66 60.26 66.48"/><polygon class="cls-65" points="60.26 66.96 52.47 74.75 51.99 74.75 60.26 66.48 60.26 66.96"/><polygon class="cls-63" points="60.26 67.44 52.95 74.75 52.47 74.75 60.26 66.96 60.26 67.44"/><polygon class="cls-57" points="60.26 67.92 53.43 74.75 52.95 74.75 60.26 67.44 60.26 67.92"/><polygon class="cls-58" points="60.26 68.39 53.91 74.75 53.43 74.75 60.26 67.92 60.26 68.39"/><polygon class="cls-56" points="60.26 68.87 54.39 74.75 53.91 74.75 60.26 68.39 60.26 68.87"/><polygon class="cls-134" points="60.26 69.35 54.87 74.75 54.39 74.75 60.26 68.87 60.26 69.35"/><polygon class="cls-60" points="60.26 69.83 55.35 74.75 54.87 74.75 60.26 69.35 60.26 69.83"/><polygon class="cls-136" points="60.26 70.31 55.83 74.75 55.35 74.75 60.26 69.83 60.26 70.31"/><polygon class="cls-62" points="60.26 70.79 56.31 74.75 55.83 74.75 60.26 70.31 60.26 70.79"/><polygon class="cls-52" points="60.26 71.27 56.79 74.75 56.31 74.75 60.26 70.79 60.26 71.27"/><polygon class="cls-53" points="60.26 71.75 57.26 74.75 56.79 74.75 60.26 71.27 60.26 71.75"/><polygon class="cls-32" points="60.26 72.23 57.74 74.75 57.26 74.75 60.26 71.75 60.26 72.23"/><polygon class="cls-31" points="60.26 72.71 58.22 74.75 57.74 74.75 60.26 72.23 60.26 72.71"/><polygon class="cls-110" points="60.26 73.19 58.7 74.75 58.22 74.75 60.26 72.71 60.26 73.19"/><polygon class="cls-142" points="60.26 73.67 59.18 74.75 58.7 74.75 60.26 73.19 60.26 73.67"/><polygon class="cls-113" points="60.26 74.14 59.66 74.75 59.18 74.75 60.26 73.67 60.26 74.14"/><polygon class="cls-111" points="60.26 74.62 60.14 74.75 59.66 74.75 60.26 74.14 60.26 74.62"/><polygon class="cls-115" points="60.14 74.75 60.26 74.62 60.26 74.75 60.14 74.75"/><polygon class="cls-21" points="38.17 33.94 37.9 34.21 37.9 33.94 38.17 33.94"/><polygon class="cls-22" points="38.78 33.94 37.9 34.83 37.9 34.21 38.17 33.94 38.78 33.94"/><polygon class="cls-11" points="39.4 33.94 37.9 35.44 37.9 34.83 38.78 33.94 39.4 33.94"/><polygon class="cls-12" points="40.01 33.94 37.9 36.05 37.9 35.44 39.4 33.94 40.01 33.94"/><polygon class="cls-13" points="40.62 33.94 37.9 36.66 37.9 36.05 40.01 33.94 40.62 33.94"/><polygon class="cls-10" points="41.23 33.94 37.9 37.27 37.9 36.66 40.62 33.94 41.23 33.94"/><polygon class="cls-14" points="41.84 33.94 37.9 37.88 37.9 37.27 41.23 33.94 41.84 33.94"/><polygon class="cls-30" points="42.45 33.94 37.9 38.49 37.9 37.88 41.84 33.94 42.45 33.94"/><polygon class="cls-29" points="43.06 33.94 37.9 39.1 37.9 38.49 42.45 33.94 43.06 33.94"/><polygon class="cls-15" points="43.67 33.94 37.9 39.72 37.9 39.1 43.06 33.94 43.67 33.94"/><polygon class="cls-19" points="44.29 33.94 37.9 40.33 37.9 39.72 43.67 33.94 44.29 33.94"/><polygon class="cls-18" points="44.9 33.94 37.9 40.94 37.9 40.33 44.29 33.94 44.9 33.94"/><polygon class="cls-47" points="45.51 33.94 37.9 41.55 37.9 40.94 44.9 33.94 45.51 33.94"/><polygon class="cls-46" points="46.12 33.94 37.9 42.16 37.9 41.55 45.51 33.94 46.12 33.94"/><polygon class="cls-48" points="46.73 33.94 37.9 42.77 37.9 42.16 46.12 33.94 46.73 33.94"/><polygon class="cls-76" points="47.34 33.94 37.9 43.38 37.9 42.77 46.73 33.94 47.34 33.94"/><polygon class="cls-77" points="47.95 33.94 37.9 44 37.9 43.38 47.34 33.94 47.95 33.94"/><polygon class="cls-77" points="48.57 33.94 38.36 44.15 37.9 44.15 37.9 44 47.95 33.94 48.57 33.94"/><polygon class="cls-81" points="48.57 33.94 48.87 34.25 38.97 44.15 38.36 44.15 48.57 33.94 48.57 33.94"/><polygon class="cls-82" points="48.87 34.25 49.18 34.55 39.58 44.15 38.97 44.15 48.87 34.25"/><polygon class="cls-80" points="49.18 34.55 49.49 34.86 40.19 44.15 39.58 44.15 49.18 34.55"/><polygon class="cls-83" points="49.49 34.86 49.79 35.16 40.8 44.15 40.19 44.15 49.49 34.86"/><polygon class="cls-91" points="49.79 35.16 50.1 35.47 41.41 44.15 40.8 44.15 49.79 35.16"/><polygon class="cls-93" points="50.1 35.47 50.37 35.74 50.37 35.81 42.02 44.15 41.41 44.15 50.1 35.47"/><polygon class="cls-92" points="50.37 36.42 42.64 44.15 42.02 44.15 50.37 35.81 50.37 36.42"/><polygon class="cls-132" points="50.37 37.03 43.25 44.15 42.64 44.15 50.37 36.42 50.37 37.03"/><polygon class="cls-131" points="50.37 37.65 43.86 44.15 43.25 44.15 50.37 37.03 50.37 37.65"/><polygon class="cls-130" points="50.37 38.26 44.47 44.15 43.86 44.15 50.37 37.65 50.37 38.26"/><polygon class="cls-130" points="50.37 38.87 45.08 44.15 44.47 44.15 50.37 38.26 50.37 38.87"/><polygon class="cls-94" points="50.37 39.48 45.69 44.15 45.08 44.15 50.37 38.87 50.37 39.48"/><polygon class="cls-95" points="50.37 40.09 46.3 44.15 45.69 44.15 50.37 39.48 50.37 40.09"/><polygon class="cls-95" points="50.37 40.7 46.91 44.15 46.3 44.15 50.37 40.09 50.37 40.7"/><polygon class="cls-96" points="50.37 41.31 47.53 44.15 46.91 44.15 50.37 40.7 50.37 41.31"/><polygon class="cls-97" points="50.37 41.93 48.14 44.15 47.53 44.15 50.37 41.31 50.37 41.93"/><polygon class="cls-100" points="50.37 42.54 48.75 44.15 48.14 44.15 50.37 41.93 50.37 42.54"/><polygon class="cls-100" points="50.37 43.15 49.36 44.15 48.75 44.15 50.37 42.54 50.37 43.15"/><polygon class="cls-101" points="50.37 43.76 49.97 44.15 49.36 44.15 50.37 43.15 50.37 43.76"/><polygon class="cls-101" points="49.97 44.15 50.37 43.76 50.37 44.15 49.97 44.15"/><polygon class="cls-97" points="48.18 44.11 47.78 44.52 47.78 44.11 48.18 44.11"/><polygon class="cls-100" points="48.79 44.11 47.78 45.13 47.78 44.52 48.18 44.11 48.79 44.11"/><polygon class="cls-100" points="49.4 44.11 47.78 45.74 47.78 45.13 48.79 44.11 49.4 44.11"/><polygon class="cls-101" points="50.01 44.11 47.78 46.35 47.78 45.74 49.4 44.11 50.01 44.11"/><polygon class="cls-101" points="50.62 44.11 47.78 46.96 47.78 46.35 50.01 44.11 50.62 44.11"/><polygon class="cls-102" points="51.24 44.11 47.78 47.57 47.78 46.96 50.62 44.11 51.24 44.11"/><polygon class="cls-103" points="51.85 44.11 47.78 48.18 47.78 47.57 51.24 44.11 51.85 44.11"/><polygon class="cls-125" points="52.46 44.11 47.78 48.8 47.78 48.18 51.85 44.11 52.46 44.11"/><polygon class="cls-128" points="53.07 44.11 47.78 49.41 47.78 48.8 52.46 44.11 53.07 44.11"/><polygon class="cls-128" points="53.68 44.11 47.78 50.02 47.78 49.41 53.07 44.11 53.68 44.11"/><polygon class="cls-127" points="54.29 44.11 47.78 50.63 47.78 50.02 53.68 44.11 54.29 44.11"/><polygon class="cls-127" points="54.9 44.11 47.78 51.24 47.78 50.63 54.29 44.11 54.9 44.11"/><polygon class="cls-127" points="55.51 44.11 47.78 51.85 47.78 51.24 54.9 44.11 55.51 44.11"/><polygon class="cls-127" points="56.13 44.11 47.78 52.46 47.78 51.85 55.51 44.11 56.13 44.11"/><polygon class="cls-126" points="56.74 44.11 47.78 53.07 47.78 52.46 56.13 44.11 56.74 44.11"/><polygon class="cls-121" points="57.35 44.11 47.78 53.69 47.78 53.07 56.74 44.11 57.35 44.11"/><polygon class="cls-121" points="57.96 44.11 47.78 54.3 47.78 53.69 57.35 44.11 57.96 44.11"/><polygon class="cls-121" points="58.57 44.11 47.78 54.91 47.78 54.3 57.96 44.11 58.57 44.11"/><polygon class="cls-121" points="59.18 44.11 47.78 55.52 47.78 54.91 58.57 44.11 59.18 44.11"/><polygon class="cls-122" points="59.79 44.11 47.78 56.13 47.78 55.52 59.18 44.11 59.79 44.11"/><polygon class="cls-122" points="60.41 44.11 48.05 56.47 47.78 56.2 47.78 56.13 59.79 44.11 60.41 44.11"/><polygon class="cls-122" points="61.02 44.11 48.35 56.78 48.05 56.47 60.41 44.11 61.02 44.11"/><polygon class="cls-122" points="61.63 44.11 48.66 57.08 48.35 56.78 61.02 44.11 61.63 44.11"/><polygon class="cls-122" points="62.24 44.11 48.96 57.39 48.66 57.08 61.63 44.11 62.24 44.11"/><polygon class="cls-122" points="62.85 44.11 49.27 57.69 48.96 57.39 62.24 44.11 62.85 44.11"/><polygon class="cls-122" points="63.46 44.11 49.58 58 49.27 57.69 62.85 44.11 63.46 44.11"/><polygon class="cls-122" points="63.94 44.11 49.82 58.24 49.58 58 63.46 44.11 63.94 44.11"/><polygon class="cls-120" points="64.42 44.11 50.06 58.48 49.82 58.24 63.94 44.11 64.42 44.11"/><polygon class="cls-129" points="64.9 44.11 50.29 58.72 50.06 58.48 64.42 44.11 64.9 44.11"/><polygon class="cls-105" points="65.38 44.11 50.53 58.96 50.29 58.72 64.9 44.11 65.38 44.11"/><polygon class="cls-104" points="65.54 44.11 65.7 44.27 50.77 59.2 50.53 58.96 65.38 44.11 65.54 44.11"/><rect class="cls-90" x="47.8" y="51.68" width="21.11" height=".34" transform="translate(-19.57 56.45) rotate(-45)"/><rect class="cls-98" x="48.04" y="51.92" width="21.11" height=".34" transform="translate(-19.67 56.69) rotate(-45)"/><rect class="cls-99" x="48.28" y="52.16" width="21.11" height=".34" transform="translate(-19.77 56.93) rotate(-45)"/><rect class="cls-118" x="48.52" y="52.4" width="21.11" height=".34" transform="translate(-19.87 57.17) rotate(-45)"/><rect class="cls-117" x="48.76" y="52.64" width="21.11" height=".34" transform="translate(-19.97 57.41) rotate(-45)"/><rect class="cls-88" x="49" y="52.88" width="21.11" height=".34" transform="translate(-20.07 57.65) rotate(-45)"/><rect class="cls-89" x="49.24" y="53.12" width="21.11" height=".34" transform="translate(-20.17 57.89) rotate(-45)"/><rect class="cls-79" x="49.48" y="53.36" width="21.11" height=".34" transform="translate(-20.27 58.13) rotate(-45)"/><rect class="cls-78" x="49.72" y="53.6" width="21.11" height=".34" transform="translate(-20.37 58.37) rotate(-45)"/><rect class="cls-85" x="49.96" y="53.84" width="21.11" height=".34" transform="translate(-20.47 58.61) rotate(-45)"/><rect class="cls-84" x="50.2" y="54.08" width="21.11" height=".34" transform="translate(-20.57 58.85) rotate(-45)"/><rect class="cls-86" x="50.44" y="54.32" width="21.11" height=".34" transform="translate(-20.66 59.09) rotate(-45)"/><rect class="cls-36" x="50.68" y="54.56" width="21.11" height=".34" transform="translate(-20.76 59.33) rotate(-45)"/><rect class="cls-33" x="50.92" y="54.8" width="21.11" height=".34" transform="translate(-20.86 59.57) rotate(-45)"/><rect class="cls-51" x="51.16" y="55.04" width="21.11" height=".34" transform="translate(-20.96 59.81) rotate(-45)"/><polygon class="cls-27" points="69.29 47.86 69.53 48.1 54.76 62.88 54.46 62.88 54.37 62.79 69.29 47.86"/><polygon class="cls-17" points="69.53 48.1 69.77 48.34 55.24 62.88 54.76 62.88 69.53 48.1"/><polygon class="cls-16" points="69.77 48.34 70.01 48.58 55.71 62.88 55.24 62.88 69.77 48.34"/><polygon class="cls-34" points="70.01 48.58 70.03 48.6 70.03 49.05 56.19 62.88 55.71 62.88 70.01 48.58"/><polygon class="cls-35" points="70.03 49.53 56.67 62.88 56.19 62.88 70.03 49.05 70.03 49.53"/><polygon class="cls-9" points="70.03 50.01 57.15 62.88 56.67 62.88 70.03 49.53 70.03 50.01"/><polygon class="cls-7" points="70.03 50.48 57.63 62.88 57.15 62.88 70.03 50.01 70.03 50.48"/><polygon class="cls-5" points="70.03 50.96 58.11 62.88 57.63 62.88 70.03 50.48 70.03 50.96"/><polygon class="cls-8" points="70.03 51.44 58.59 62.88 58.11 62.88 70.03 50.96 70.03 51.44"/><polygon class="cls-6" points="70.03 51.92 59.07 62.88 58.59 62.88 70.03 51.44 70.03 51.92"/><polygon class="cls-20" points="70.03 52.4 59.55 62.88 59.07 62.88 70.03 51.92 70.03 52.4"/><polygon class="cls-4" points="70.03 52.88 60.03 62.88 59.55 62.88 70.03 52.4 70.03 52.88"/><polygon class="cls-23" points="70.03 53.36 60.51 62.88 60.03 62.88 70.03 52.88 70.03 53.36"/><polygon class="cls-24" points="70.03 53.84 60.99 62.88 60.51 62.88 70.03 53.36 70.03 53.84"/><polygon class="cls-38" points="70.03 54.32 61.46 62.88 60.99 62.88 70.03 53.84 70.03 54.32"/><polygon class="cls-37" points="70.03 54.8 61.94 62.88 61.46 62.88 70.03 54.32 70.03 54.8"/><polygon class="cls-73" points="70.03 55.28 62.42 62.88 61.94 62.88 70.03 54.8 70.03 55.28"/><polygon class="cls-72" points="70.03 55.76 62.9 62.88 62.42 62.88 70.03 55.28 70.03 55.76"/><polygon class="cls-68" points="70.03 56.23 63.38 62.88 62.9 62.88 70.03 55.76 70.03 56.23"/><polygon class="cls-67" points="70.03 56.71 63.86 62.88 63.38 62.88 70.03 56.23 70.03 56.71"/><polygon class="cls-65" points="70.03 57.19 64.34 62.88 63.86 62.88 70.03 56.71 70.03 57.19"/><polygon class="cls-63" points="70.03 57.67 64.82 62.88 64.34 62.88 70.03 57.19 70.03 57.67"/><polygon class="cls-57" points="70.03 58.15 65.3 62.88 64.82 62.88 70.03 57.67 70.03 58.15"/><polygon class="cls-58" points="70.03 58.63 65.78 62.88 65.3 62.88 70.03 58.15 70.03 58.63"/><polygon class="cls-56" points="70.03 59.11 66.26 62.88 65.78 62.88 70.03 58.63 70.03 59.11"/><polygon class="cls-134" points="70.03 59.59 66.73 62.88 66.26 62.88 70.03 59.11 70.03 59.59"/><polygon class="cls-60" points="70.03 60.07 67.21 62.88 66.73 62.88 70.03 59.59 70.03 60.07"/><polygon class="cls-136" points="70.03 60.55 67.69 62.88 67.21 62.88 70.03 60.07 70.03 60.55"/><polygon class="cls-62" points="70.03 61.03 68.17 62.88 67.69 62.88 70.03 60.55 70.03 61.03"/><polygon class="cls-52" points="70.03 61.5 68.65 62.88 68.17 62.88 70.03 61.03 70.03 61.5"/><polygon class="cls-53" points="70.03 61.98 69.13 62.88 68.65 62.88 70.03 61.5 70.03 61.98"/><polygon class="cls-32" points="70.03 62.46 69.61 62.88 69.13 62.88 70.03 61.98 70.03 62.46"/><polygon class="cls-31" points="69.61 62.88 70.03 62.46 70.03 62.88 69.61 62.88"/><polygon class="cls-70" points="22.64 45.81 22.52 45.93 22.52 45.81 22.64 45.81"/><polygon class="cls-71" points="23.25 45.81 22.52 46.54 22.52 45.93 22.64 45.81 23.25 45.81"/><polygon class="cls-41" points="23.86 45.81 22.52 47.16 22.52 46.54 23.25 45.81 23.86 45.81"/><polygon class="cls-42" points="24.47 45.81 22.52 47.77 22.52 47.16 23.86 45.81 24.47 45.81"/><polygon class="cls-26" points="25.08 45.81 22.52 48.38 22.52 47.77 24.47 45.81 25.08 45.81"/><polygon class="cls-25" points="25.7 45.81 22.52 48.99 22.52 48.38 25.08 45.81 25.7 45.81"/><polygon class="cls-21" points="26.31 45.81 22.52 49.6 22.52 48.99 25.7 45.81 26.31 45.81"/><polygon class="cls-22" points="26.92 45.81 22.52 50.21 22.52 49.6 26.31 45.81 26.92 45.81"/><polygon class="cls-11" points="27.53 45.81 22.52 50.82 22.52 50.21 26.92 45.81 27.53 45.81"/><polygon class="cls-12" points="28.14 45.81 22.52 51.44 22.52 50.82 27.53 45.81 28.14 45.81"/><polygon class="cls-13" points="28.75 45.81 22.52 52.05 22.52 51.44 28.14 45.81 28.75 45.81"/><polygon class="cls-10" points="29.36 45.81 22.52 52.66 22.52 52.05 28.75 45.81 29.36 45.81"/><polygon class="cls-14" points="29.97 45.81 22.52 53.27 22.52 52.66 29.36 45.81 29.97 45.81"/><polygon class="cls-30" points="30.59 45.81 22.52 53.88 22.52 53.27 29.97 45.81 30.59 45.81"/><polygon class="cls-29" points="31.2 45.81 22.52 54.49 22.52 53.88 30.59 45.81 31.2 45.81"/><polygon class="cls-15" points="31.81 45.81 22.52 55.1 22.52 54.49 31.2 45.81 31.81 45.81"/><polygon class="cls-19" points="32.42 45.81 22.52 55.71 22.52 55.1 31.81 45.81 32.42 45.81"/><polygon class="cls-18" points="33.03 45.81 22.52 56.33 22.52 55.71 32.42 45.81 33.03 45.81"/><polygon class="cls-47" points="33.64 45.81 22.52 56.94 22.52 56.33 33.03 45.81 33.64 45.81"/><polygon class="cls-46" points="34.25 45.81 22.52 57.55 22.52 56.94 33.64 45.81 34.25 45.81"/><polygon class="cls-48" points="34.87 45.81 22.52 58.16 22.52 57.55 34.25 45.81 34.87 45.81"/><polygon class="cls-76" points="35.48 45.81 22.52 58.77 22.52 58.16 34.87 45.81 35.48 45.81"/><polygon class="cls-77" points="36.09 45.81 22.52 59.38 22.52 58.77 35.48 45.81 36.09 45.81"/><polygon class="cls-77" points="36.7 45.81 22.52 59.99 22.52 59.38 36.09 45.81 36.7 45.81"/><polygon class="cls-81" points="37.31 45.81 22.52 60.6 22.52 59.99 36.7 45.81 37.31 45.81"/><polygon class="cls-82" points="37.92 45.81 22.52 61.22 22.52 60.6 37.31 45.81 37.92 45.81"/><polygon class="cls-80" points="38.53 45.81 23.1 61.24 22.52 61.24 22.52 61.22 37.92 45.81 38.53 45.81"/><polygon class="cls-83" points="38.81 45.81 38.98 45.98 23.71 61.24 23.1 61.24 38.53 45.81 38.81 45.81"/><polygon class="cls-91" points="38.98 45.98 39.28 46.28 24.32 61.24 23.71 61.24 38.98 45.98"/><polygon class="cls-93" points="39.28 46.28 39.59 46.59 24.93 61.24 24.32 61.24 39.28 46.28"/><polygon class="cls-92" points="39.59 46.59 39.9 46.89 25.54 61.24 24.93 61.24 39.59 46.59"/><polygon class="cls-132" points="39.9 46.89 40.2 47.2 26.16 61.24 25.54 61.24 39.9 46.89"/><polygon class="cls-131" points="40.2 47.2 40.51 47.51 26.77 61.24 26.16 61.24 40.2 47.2"/><polygon class="cls-130" points="40.51 47.51 40.61 47.6 40.61 48.02 27.38 61.24 26.77 61.24 40.51 47.51"/><polygon class="cls-130" points="40.61 48.63 27.99 61.24 27.38 61.24 40.61 48.02 40.61 48.63"/><polygon class="cls-94" points="40.61 49.24 28.6 61.24 27.99 61.24 40.61 48.63 40.61 49.24"/><polygon class="cls-95" points="40.61 49.85 29.21 61.24 28.6 61.24 40.61 49.24 40.61 49.85"/><polygon class="cls-95" points="40.61 50.46 29.82 61.24 29.21 61.24 40.61 49.85 40.61 50.46"/><polygon class="cls-96" points="40.61 51.07 30.44 61.24 29.82 61.24 40.61 50.46 40.61 51.07"/><polygon class="cls-97" points="40.61 51.69 31.05 61.24 30.44 61.24 40.61 51.07 40.61 51.69"/><polygon class="cls-100" points="40.61 52.3 31.66 61.24 31.05 61.24 40.61 51.69 40.61 52.3"/><polygon class="cls-100" points="40.61 52.91 32.27 61.24 31.66 61.24 40.61 52.3 40.61 52.91"/><polygon class="cls-101" points="40.61 53.52 32.88 61.24 32.27 61.24 40.61 52.91 40.61 53.52"/><polygon class="cls-101" points="40.61 54.13 33.49 61.24 32.88 61.24 40.61 53.52 40.61 54.13"/><polygon class="cls-102" points="40.61 54.74 34.1 61.24 33.49 61.24 40.61 54.13 40.61 54.74"/><polygon class="cls-103" points="40.61 55.35 34.71 61.24 34.1 61.24 40.61 54.74 40.61 55.35"/><polygon class="cls-125" points="40.61 55.96 35.33 61.24 34.71 61.24 40.61 55.35 40.61 55.96"/><polygon class="cls-128" points="40.61 56.58 35.94 61.24 35.33 61.24 40.61 55.96 40.61 56.58"/><polygon class="cls-128" points="40.61 57.19 36.55 61.24 35.94 61.24 40.61 56.58 40.61 57.19"/><polygon class="cls-127" points="40.61 57.8 37.16 61.24 36.55 61.24 40.61 57.19 40.61 57.8"/><polygon class="cls-127" points="40.61 58.41 37.77 61.24 37.16 61.24 40.61 57.8 40.61 58.41"/><polygon class="cls-127" points="40.61 59.02 38.38 61.24 37.77 61.24 40.61 58.41 40.61 59.02"/><polygon class="cls-127" points="40.61 59.63 38.99 61.24 38.38 61.24 40.61 59.02 40.61 59.63"/><polygon class="cls-126" points="40.61 60.24 39.61 61.24 38.99 61.24 40.61 59.63 40.61 60.24"/><polygon class="cls-121" points="40.61 60.85 40.22 61.24 39.61 61.24 40.61 60.24 40.61 60.85"/><polygon class="cls-121" points="40.22 61.24 40.61 60.85 40.61 61.24 40.22 61.24"/><polygon class="cls-131" points="57.77 30.24 57.54 30.47 57.54 30.24 57.77 30.24"/><polygon class="cls-130" points="58.38 30.24 57.54 31.08 57.54 30.47 57.77 30.24 58.38 30.24"/><polygon class="cls-130" points="59 30.24 57.54 31.69 57.54 31.08 58.38 30.24 59 30.24"/><polygon class="cls-94" points="59.61 30.24 57.54 32.31 57.54 31.69 59 30.24 59.61 30.24"/><polygon class="cls-95" points="60.22 30.24 57.54 32.92 57.54 32.31 59.61 30.24 60.22 30.24"/><polygon class="cls-95" points="60.83 30.24 57.54 33.53 57.54 32.92 60.22 30.24 60.83 30.24"/><polygon class="cls-96" points="61.44 30.24 57.54 34.14 57.54 33.53 60.83 30.24 61.44 30.24"/><polygon class="cls-97" points="62.05 30.24 57.54 34.75 57.54 34.14 61.44 30.24 62.05 30.24"/><polygon class="cls-100" points="62.66 30.24 57.54 35.36 57.54 34.75 62.05 30.24 62.66 30.24"/><polygon class="cls-100" points="63.28 30.24 57.54 35.97 57.54 35.36 62.66 30.24 63.28 30.24"/><polygon class="cls-101" points="63.89 30.24 57.54 36.59 57.54 35.97 63.28 30.24 63.89 30.24"/><polygon class="cls-101" points="64.5 30.24 57.54 37.2 57.54 36.59 63.89 30.24 64.5 30.24"/><polygon class="cls-102" points="65.11 30.24 57.54 37.81 57.54 37.2 64.5 30.24 65.11 30.24"/><polygon class="cls-103" points="65.59 30.37 57.54 38.42 57.54 37.81 65.11 30.24 65.59 30.24 65.59 30.37"/><polygon class="cls-125" points="65.59 30.99 57.54 39.03 57.54 38.42 65.59 30.37 65.59 30.99"/><polygon class="cls-128" points="65.59 31.6 57.54 39.64 57.54 39.03 65.59 30.99 65.59 31.6"/><polygon class="cls-128" points="65.59 32.21 57.54 40.25 57.54 39.64 65.59 31.6 65.59 32.21"/><polygon class="cls-127" points="65.59 32.82 57.54 40.86 57.54 40.25 65.59 32.21 65.59 32.82"/><polygon class="cls-127" points="65.59 33.43 57.54 41.48 57.54 40.86 65.59 32.82 65.59 33.43"/><polygon class="cls-127" points="65.59 34.04 57.54 42.09 57.54 41.48 65.59 33.43 65.59 34.04"/><polygon class="cls-127" points="65.59 34.65 57.84 42.4 57.54 42.4 57.54 42.09 65.59 34.04 65.59 34.65"/><polygon class="cls-126" points="65.59 35.26 58.45 42.4 57.84 42.4 65.59 34.65 65.59 35.26"/><polygon class="cls-121" points="65.59 35.88 59.06 42.4 58.45 42.4 65.59 35.26 65.59 35.88"/><polygon class="cls-121" points="65.59 36.49 59.67 42.4 59.06 42.4 65.59 35.88 65.59 36.49"/><polygon class="cls-121" points="65.59 37.1 60.28 42.4 59.67 42.4 65.59 36.49 65.59 37.1"/><polygon class="cls-121" points="65.59 37.71 60.9 42.4 60.28 42.4 65.59 37.1 65.59 37.71"/><polygon class="cls-122" points="65.59 38.32 61.51 42.4 60.9 42.4 65.59 37.71 65.59 38.32"/><polygon class="cls-122" points="65.59 38.93 62.12 42.4 61.51 42.4 65.59 38.32 65.59 38.93"/><polygon class="cls-122" points="65.59 39.54 62.73 42.4 62.12 42.4 65.59 38.93 65.59 39.54"/><polygon class="cls-122" points="65.59 40.15 63.34 42.4 62.73 42.4 65.59 39.54 65.59 40.15"/><polygon class="cls-122" points="65.59 40.77 63.95 42.4 63.34 42.4 65.59 40.15 65.59 40.77"/><polygon class="cls-122" points="65.59 41.38 64.56 42.4 63.95 42.4 65.59 40.77 65.59 41.38"/><polygon class="cls-122" points="65.59 41.99 65.17 42.4 64.56 42.4 65.59 41.38 65.59 41.99"/><polygon class="cls-122" points="65.17 42.4 65.59 41.99 65.59 42.4 65.17 42.4"/><polygon class="cls-109" points="18.03 29.02 17.72 29.33 17.72 29.02 18.03 29.02"/><polygon class="cls-87" points="18.65 29.02 17.72 29.94 17.72 29.33 18.03 29.02 18.65 29.02"/><polygon class="cls-140" points="19.26 29.02 17.72 30.55 17.72 29.94 18.65 29.02 19.26 29.02"/><polygon class="cls-75" points="19.87 29.02 17.72 31.16 17.72 30.55 19.26 29.02 19.87 29.02"/><polygon class="cls-74" points="20.48 29.02 17.72 31.78 17.72 31.16 19.87 29.02 20.48 29.02"/><polygon class="cls-43" points="21.09 29.02 17.72 32.39 17.72 31.78 20.48 29.02 21.09 29.02"/><polygon class="cls-40" points="21.7 29.02 17.72 33 17.72 32.39 21.09 29.02 21.7 29.02"/><polygon class="cls-39" points="22.31 29.02 17.72 33.61 17.72 33 21.7 29.02 22.31 29.02"/><polygon class="cls-44" points="22.55 29.02 22.74 29.21 17.72 34.22 17.72 33.61 22.31 29.02 22.55 29.02"/><polygon class="cls-141" points="22.74 29.21 23.04 29.51 17.72 34.83 17.72 34.22 22.74 29.21"/><polygon class="cls-144" points="23.04 29.51 23.35 29.82 17.72 35.44 17.72 34.83 23.04 29.51"/><polygon class="cls-143" points="23.35 29.82 23.66 30.12 17.72 36.05 17.72 35.44 23.35 29.82"/><polygon class="cls-124" points="23.66 30.12 23.96 30.43 17.72 36.67 17.72 36.05 23.66 30.12"/><polygon class="cls-123" points="23.96 30.43 24.27 30.73 17.72 37.28 17.72 36.67 23.96 30.43"/><polygon class="cls-119" points="24.27 30.73 24.57 31.04 17.72 37.89 17.72 37.28 24.27 30.73"/><polygon class="cls-139" points="24.57 31.04 24.88 31.35 17.72 38.5 17.72 37.89 24.57 31.04"/><polygon class="cls-138" points="24.88 31.35 25.18 31.65 17.72 39.11 17.72 38.5 24.88 31.35"/><polygon class="cls-116" points="25.18 31.65 25.49 31.96 17.83 39.61 17.72 39.5 17.72 39.11 25.18 31.65"/><rect class="cls-114" x="16.4" y="35.72" width="10.83" height=".43" transform="translate(-19.02 25.95) rotate(-45)"/><rect class="cls-112" x="16.71" y="36.03" width="10.83" height=".43" transform="translate(-19.15 26.26) rotate(-45)"/><rect class="cls-106" x="17.01" y="36.33" width="10.83" height=".43" transform="translate(-19.28 26.56) rotate(-45)"/><rect class="cls-107" x="17.32" y="36.64" width="10.83" height=".43" transform="translate(-19.4 26.87) rotate(-45)"/><rect class="cls-28" x="17.62" y="36.94" width="10.83" height=".43" transform="translate(-19.53 27.17) rotate(-45)"/><rect class="cls-49" x="17.93" y="37.25" width="10.83" height=".43" transform="translate(-19.66 27.48) rotate(-45)"/><rect class="cls-50" x="18.24" y="37.56" width="10.83" height=".43" transform="translate(-19.78 27.78) rotate(-45)"/><rect class="cls-137" x="18.54" y="37.86" width="10.83" height=".43" transform="translate(-19.91 28.09) rotate(-45)"/><rect class="cls-135" x="18.85" y="38.17" width="10.83" height=".43" transform="translate(-20.04 28.4) rotate(-45)"/><rect class="cls-61" x="19.15" y="38.47" width="10.83" height=".43" transform="translate(-20.16 28.7) rotate(-45)"/><rect class="cls-133" x="19.46" y="38.78" width="10.83" height=".43" transform="translate(-20.29 29.01) rotate(-45)"/><rect class="cls-69" x="19.76" y="39.08" width="10.83" height=".43" transform="translate(-20.42 29.31) rotate(-45)"/><rect class="cls-59" x="20.07" y="39.39" width="10.83" height=".43" transform="translate(-20.54 29.62) rotate(-45)"/><rect class="cls-64" x="20.37" y="39.7" width="10.83" height=".43" transform="translate(-20.67 29.92) rotate(-45)"/><rect class="cls-55" x="20.68" y="40" width="10.83" height=".43" transform="translate(-20.8 30.23) rotate(-45)"/><rect class="cls-54" x="20.99" y="40.31" width="10.83" height=".43" transform="translate(-20.92 30.54) rotate(-45)"/><rect class="cls-66" x="21.29" y="40.61" width="10.83" height=".43" transform="translate(-21.05 30.84) rotate(-45)"/><polygon class="cls-70" points="30.69 37.15 30.76 37.23 30.76 37.69 23.34 45.11 23.03 44.81 30.69 37.15"/><polygon class="cls-71" points="30.76 38.3 23.66 45.4 23.62 45.4 23.34 45.11 30.76 37.69 30.76 38.3"/><polygon class="cls-41" points="30.76 38.91 24.27 45.4 23.66 45.4 30.76 38.3 30.76 38.91"/><polygon class="cls-42" points="30.76 39.52 24.88 45.4 24.27 45.4 30.76 38.91 30.76 39.52"/><polygon class="cls-26" points="30.76 40.14 25.5 45.4 24.88 45.4 30.76 39.52 30.76 40.14"/><polygon class="cls-25" points="30.76 40.75 26.11 45.4 25.5 45.4 30.76 40.14 30.76 40.75"/><polygon class="cls-21" points="30.76 41.36 26.72 45.4 26.11 45.4 30.76 40.75 30.76 41.36"/><polygon class="cls-22" points="30.76 41.97 27.33 45.4 26.72 45.4 30.76 41.36 30.76 41.97"/><polygon class="cls-11" points="30.76 42.58 27.94 45.4 27.33 45.4 30.76 41.97 30.76 42.58"/><polygon class="cls-12" points="30.76 43.19 28.55 45.4 27.94 45.4 30.76 42.58 30.76 43.19"/><polygon class="cls-13" points="30.76 43.8 29.16 45.4 28.55 45.4 30.76 43.19 30.76 43.8"/><polygon class="cls-10" points="30.76 44.41 29.78 45.4 29.16 45.4 30.76 43.8 30.76 44.41"/><polygon class="cls-14" points="30.76 45.03 30.39 45.4 29.78 45.4 30.76 44.41 30.76 45.03"/><polygon class="cls-30" points="30.39 45.4 30.76 45.03 30.76 45.4 30.39 45.4"/><polygon class="cls-45" points="28.07 17.15 27.48 17.74 27.48 17.15 28.07 17.15"/><polygon class="cls-45" points="28.68 17.15 27.48 18.35 27.48 17.74 28.07 17.15 28.68 17.15"/><polygon class="cls-108" points="29.29 17.15 27.48 18.96 27.48 18.35 28.68 17.15 29.29 17.15"/><polygon class="cls-109" points="29.9 17.15 27.48 19.57 27.48 18.96 29.29 17.15 29.9 17.15"/><polygon class="cls-87" points="30.51 17.15 27.48 20.18 27.48 19.57 29.9 17.15 30.51 17.15"/><polygon class="cls-140" points="31.12 17.15 27.48 20.79 27.48 20.18 30.51 17.15 31.12 17.15"/><polygon class="cls-75" points="31.73 17.15 27.48 21.4 27.48 20.79 31.12 17.15 31.73 17.15"/><polygon class="cls-74" points="32.31 17.15 32.33 17.17 27.48 22.02 27.48 21.4 31.73 17.15 32.31 17.15"/><polygon class="cls-43" points="32.33 17.17 32.63 17.48 27.48 22.63 27.48 22.02 32.33 17.17"/><polygon class="cls-40" points="32.63 17.48 32.94 17.78 27.48 23.24 27.48 22.63 32.63 17.48"/><polygon class="cls-39" points="32.94 17.78 33.25 18.09 27.48 23.85 27.48 23.24 32.94 17.78"/><polygon class="cls-44" points="33.25 18.09 33.55 18.39 27.48 24.46 27.48 23.85 33.25 18.09"/><polygon class="cls-141" points="33.55 18.39 33.86 18.7 27.48 25.07 27.48 24.46 33.55 18.39"/><polygon class="cls-144" points="33.86 18.7 34.16 19 27.48 25.68 27.48 25.07 33.86 18.7"/><polygon class="cls-143" points="34.16 19 34.47 19.31 27.48 26.29 27.48 25.68 34.16 19"/><polygon class="cls-124" points="34.47 19.31 34.77 19.62 27.48 26.91 27.48 26.29 34.47 19.31"/><polygon class="cls-123" points="34.77 19.62 35.08 19.92 27.48 27.52 27.48 26.91 34.77 19.62"/><polygon class="cls-119" points="35.08 19.92 35.38 20.23 27.69 27.92 27.48 27.71 27.48 27.52 35.08 19.92"/><rect class="cls-139" x="26.25" y="24.01" width="10.88" height=".43" transform="translate(-7.85 29.5) rotate(-45)"/><rect class="cls-138" x="26.56" y="24.32" width="10.88" height=".43" transform="translate(-7.98 29.81) rotate(-45)"/><rect class="cls-116" x="26.86" y="24.62" width="10.88" height=".43" transform="translate(-8.1 30.12) rotate(-45)"/><rect class="cls-114" x="27.17" y="24.93" width="10.88" height=".43" transform="translate(-8.23 30.42) rotate(-45)"/><rect class="cls-112" x="27.47" y="25.23" width="10.88" height=".43" transform="translate(-8.36 30.73) rotate(-45)"/><rect class="cls-106" x="27.78" y="25.54" width="10.88" height=".43" transform="translate(-8.48 31.03) rotate(-45)"/><rect class="cls-107" x="28.09" y="25.84" width="10.88" height=".43" transform="translate(-8.61 31.34) rotate(-45)"/><rect class="cls-28" x="28.39" y="26.15" width="10.88" height=".43" transform="translate(-8.74 31.64) rotate(-45)"/><rect class="cls-49" x="28.7" y="26.46" width="10.88" height=".43" transform="translate(-8.86 31.95) rotate(-45)"/><rect class="cls-50" x="29" y="26.76" width="10.88" height=".43" transform="translate(-8.99 32.26) rotate(-45)"/><rect class="cls-137" x="29.31" y="27.07" width="10.88" height=".43" transform="translate(-9.11 32.56) rotate(-45)"/><rect class="cls-135" x="29.61" y="27.37" width="10.88" height=".43" transform="translate(-9.24 32.87) rotate(-45)"/><rect class="cls-61" x="29.92" y="27.68" width="10.88" height=".43" transform="translate(-9.37 33.17) rotate(-45)"/><rect class="cls-133" x="30.23" y="27.98" width="10.88" height=".43" transform="translate(-9.49 33.48) rotate(-45)"/><rect class="cls-69" x="30.53" y="28.29" width="10.88" height=".43" transform="translate(-9.62 33.78) rotate(-45)"/><rect class="cls-59" x="30.84" y="28.6" width="10.88" height=".43" transform="translate(-9.75 34.09) rotate(-45)"/><polygon class="cls-64" points="40.28 25.12 40.52 25.36 40.52 25.49 32.89 33.12 32.58 32.81 40.28 25.12"/><polygon class="cls-55" points="40.52 26.1 33.19 33.42 32.89 33.12 40.52 25.49 40.52 26.1"/><polygon class="cls-54" points="40.52 26.71 33.66 33.57 33.34 33.57 33.19 33.42 40.52 26.1 40.52 26.71"/><polygon class="cls-66" points="40.52 27.32 34.27 33.57 33.66 33.57 40.52 26.71 40.52 27.32"/><polygon class="cls-70" points="40.52 27.93 34.88 33.57 34.27 33.57 40.52 27.32 40.52 27.93"/><polygon class="cls-71" points="40.52 28.54 35.49 33.57 34.88 33.57 40.52 27.93 40.52 28.54"/><polygon class="cls-41" points="40.52 29.15 36.1 33.57 35.49 33.57 40.52 28.54 40.52 29.15"/><polygon class="cls-42" points="40.52 29.76 36.71 33.57 36.1 33.57 40.52 29.15 40.52 29.76"/><polygon class="cls-26" points="40.52 30.38 37.32 33.57 36.71 33.57 40.52 29.76 40.52 30.38"/><polygon class="cls-25" points="40.52 30.99 37.94 33.57 37.32 33.57 40.52 30.38 40.52 30.99"/><polygon class="cls-21" points="40.52 31.6 38.55 33.57 37.94 33.57 40.52 30.99 40.52 31.6"/><polygon class="cls-22" points="40.52 32.21 39.16 33.57 38.55 33.57 40.52 31.6 40.52 32.21"/><polygon class="cls-11" points="40.52 32.82 39.77 33.57 39.16 33.57 40.52 32.21 40.52 32.82"/><polygon class="cls-12" points="40.52 33.43 40.38 33.57 39.77 33.57 40.52 32.82 40.52 33.43"/><polygon class="cls-13" points="40.38 33.57 40.52 33.43 40.52 33.57 40.38 33.57"/><polygon class="cls-66" points="47.77 20.07 47.67 20.17 47.67 20.07 47.77 20.07"/><polygon class="cls-70" points="48.38 20.07 47.67 20.78 47.67 20.17 47.77 20.07 48.38 20.07"/><polygon class="cls-71" points="48.99 20.07 47.67 21.39 47.67 20.78 48.38 20.07 48.99 20.07"/><polygon class="cls-41" points="49.6 20.07 47.67 22 47.67 21.39 48.99 20.07 49.6 20.07"/><polygon class="cls-42" points="50.21 20.07 47.67 22.62 47.67 22 49.6 20.07 50.21 20.07"/><polygon class="cls-26" points="50.83 20.07 47.67 23.23 47.67 22.62 50.21 20.07 50.83 20.07"/><polygon class="cls-25" points="51.44 20.07 47.67 23.84 47.67 23.23 50.83 20.07 51.44 20.07"/><polygon class="cls-21" points="52.05 20.07 47.67 24.45 47.67 23.84 51.44 20.07 52.05 20.07"/><polygon class="cls-22" points="52.66 20.07 47.67 25.06 47.67 24.45 52.05 20.07 52.66 20.07"/><polygon class="cls-11" points="53.27 20.07 47.67 25.67 47.67 25.06 52.66 20.07 53.27 20.07"/><polygon class="cls-12" points="53.88 20.07 47.67 26.28 47.67 25.67 53.27 20.07 53.88 20.07"/><polygon class="cls-13" points="54.49 20.07 47.67 26.89 47.67 26.28 53.88 20.07 54.49 20.07"/><polygon class="cls-10" points="55.11 20.07 47.67 27.51 47.67 26.89 54.49 20.07 55.11 20.07"/><polygon class="cls-14" points="55.72 20.07 47.67 28.12 47.67 27.51 55.11 20.07 55.72 20.07"/><polygon class="cls-30" points="55.74 20.66 47.67 28.73 47.67 28.12 55.72 20.07 55.74 20.07 55.74 20.66"/><polygon class="cls-29" points="55.74 21.27 47.67 29.34 47.67 28.73 55.74 20.66 55.74 21.27"/><polygon class="cls-15" points="55.74 21.88 47.67 29.95 47.67 29.34 55.74 21.27 55.74 21.88"/><polygon class="cls-19" points="55.74 22.49 47.67 30.56 47.67 29.95 55.74 21.88 55.74 22.49"/><polygon class="cls-18" points="55.74 23.1 47.67 31.17 47.67 30.56 55.74 22.49 55.74 23.1"/><polygon class="cls-47" points="55.74 23.71 47.67 31.79 47.67 31.17 55.74 23.1 55.74 23.71"/><polygon class="cls-46" points="55.74 24.32 47.8 32.26 47.67 32.26 47.67 31.79 55.74 23.71 55.74 24.32"/><polygon class="cls-48" points="55.74 24.94 48.41 32.26 47.8 32.26 55.74 24.32 55.74 24.94"/><polygon class="cls-76" points="55.74 25.55 49.02 32.26 48.41 32.26 55.74 24.94 55.74 25.55"/><polygon class="cls-77" points="55.74 26.16 49.64 32.26 49.02 32.26 55.74 25.55 55.74 26.16"/><polygon class="cls-77" points="55.74 26.77 50.25 32.26 49.64 32.26 55.74 26.16 55.74 26.77"/><polygon class="cls-81" points="55.74 27.38 50.86 32.26 50.25 32.26 55.74 26.77 55.74 27.38"/><polygon class="cls-82" points="55.74 27.99 51.47 32.26 50.86 32.26 55.74 27.38 55.74 27.99"/><polygon class="cls-80" points="55.74 28.6 52.08 32.26 51.47 32.26 55.74 27.99 55.74 28.6"/><polygon class="cls-83" points="55.74 29.21 52.69 32.26 52.08 32.26 55.74 28.6 55.74 29.21"/><polygon class="cls-91" points="55.74 29.83 53.3 32.26 52.69 32.26 55.74 29.21 55.74 29.83"/><polygon class="cls-93" points="55.74 30.44 53.91 32.26 53.3 32.26 55.74 29.83 55.74 30.44"/><polygon class="cls-92" points="55.74 31.05 54.53 32.26 53.91 32.26 55.74 30.44 55.74 31.05"/><polygon class="cls-132" points="55.74 31.66 55.14 32.26 54.53 32.26 55.74 31.05 55.74 31.66"/><polygon class="cls-131" points="55.14 32.26 55.74 31.66 55.74 32.26 55.14 32.26"/></g></g></svg>